<svg xmlns="http://www.w3.org/2000/svg" width="240" height="50" fill="none"><path fill="#010101" fill-rule="evenodd" d="m204.47 14.434 7.984-9.323a15.482 15.482 0 0 1 4.567-3.656C218.716.565 220.555 0 222.48 0h16.881L219.17 38.172h-17.807l2.242-4.237a9.18 9.18 0 0 1-2.076 1.453c-1.049.533-2.183.865-3.364.865h-6.256c-1.417 0-2.744-.49-3.706-1.553-.884-.976-1.228-2.205-1.122-3.452l-3.661 6.922h-12.945l-.008.015h-23.242l-.347-10.031h-3.97l-5.325 10.066h-15.208l.018-.035h-7.997l-.347-10.031h-4.159l-5.325 10.066H73.778c-1.99 0-3.97-.371-5.722-1.346-1.654-.92-2.958-2.242-3.775-3.953l-2.785 5.264H36.085l5.05-9.548h-7.452l-5.05 9.548h-15.2l.008-.015H.921l14.055-26.573H0L6.134 0h193.241c2.016 0 3.922.641 5.234 2.232 1.307 1.582 1.579 3.555 1.187 5.524l-1.329 6.678h.003ZM42.698 11.597l-3.564 6.737h7.452l3.564-6.737h-7.452Zm75.931 0-1.041 1.968 3.952-1.968h-2.911Zm-23.838 16.32 5.217-9.865H88.492c-.819 0-1.633.184-2.4.458-.987.351-1.922.829-2.798 1.402a14.785 14.785 0 0 0-2.544 2.114 10.732 10.732 0 0 0-1.782 2.421c-.313.591-.603 1.29-.667 1.96-.026.283-.032.674.09.936.078.163.2.26.357.35.324.186.852.224 1.217.224H94.79Zm33.59-1.048 5.494-10.387-7.556 3.752c1.318 1.361 1.972 3.12 2.011 5.037l.05 1.596.001.002Z" clip-rule="evenodd"/><path fill="#fff" fill-rule="evenodd" d="M176.174 1.191h23.203c1.655 0 3.234.49 4.315 1.8 1.073 1.3 1.26 2.919.939 4.533l-2.217 11.143 10.946-12.78a14.275 14.275 0 0 1 4.216-3.376c1.521-.799 3.175-1.318 4.904-1.318h14.903l-18.93 35.787h-15.111l6.191-11.702-6.136 7.164a8.078 8.078 0 0 1-2.409 1.885c-.879.447-1.831.736-2.823.736h-6.256c-1.079 0-2.089-.351-2.824-1.162-.796-.877-.976-2.014-.726-3.141l1.459-7.236L182.7 36.98h-12.948l-.008.016h-21.371l-.347-10.032h-5.84l-5.325 10.067h-12.509l.018-.035h-8.827l-.347-10.032h-6.046l-1.135 2.147h.018l-4.188 7.92H73.776c-1.785 0-3.569-.322-5.143-1.196-1.449-.806-2.587-1.956-3.296-3.461a8.297 8.297 0 0 1-.727-2.626l-3.834 7.248H38.06l5.05-9.549H32.963l-5.05 9.549h-12.51l.008-.016H2.899l14.055-26.574H1.978L6.852 1.19h169.322ZM41.98 10.406l-4.825 9.12h10.148l4.825-9.12H41.98Zm32.863 0-2.232 4.22a27.877 27.877 0 0 1 2.479-1.823 26.355 26.355 0 0 1 4.573-2.397h-4.82Zm43.067 0-3.109 5.878 11.803-5.878h-8.694ZM95.508 29.108l6.478-12.247H88.491c-.956 0-1.901.206-2.8.528a14.49 14.49 0 0 0-3.049 1.526 15.954 15.954 0 0 0-2.75 2.283 11.91 11.91 0 0 0-1.978 2.691c-.389.735-.72 1.572-.8 2.407-.048.515-.024 1.079.2 1.555.184.389.469.662.841.875.53.303 1.213.384 1.811.384H95.51l-.001-.002Zm31.825 2.291 9.324-17.628-12.555 6.236c.314.182.614.391.9.632 1.428 1.199 2.097 2.846 2.137 4.673l.194 6.089v-.002Zm32.863-.001 3.635-6.872c-.733.48-1.501.903-2.301 1.262-.488.22-.985.414-1.495.579l.161 5.03Zm-13.799-12.39h8.339c.212 0 .426-.053.625-.125.309-.112.601-.262.875-.441a4.77 4.77 0 0 0 .811-.676c.214-.22.402-.465.546-.737.025-.048.054-.106.08-.168h-10.141l-1.135 2.148Z" clip-rule="evenodd"/><path fill="#010101" fill-rule="evenodd" d="M181.537 35.044h-10.73l16.88-31.915h11.69c1.279 0 2.218.365 2.821 1.096.603.73.781 1.705.532 2.921l-3.659 18.401 15.759-18.4a12.258 12.258 0 0 1 3.646-2.922c1.391-.73 2.725-1.096 4.004-1.096h11.688l-16.881 31.915h-10.73l12.824-24.246-17.437 20.365a6.123 6.123 0 0 1-1.834 1.438c-.688.35-1.335.526-1.944.526h-6.255c-.609 0-1.072-.174-1.39-.526-.317-.35-.406-.829-.267-1.438l4.106-20.365-12.825 24.246h.002Zm-21.086.014h8.129l12.79-24.18h-8.13l-12.789 24.18Zm-24.752.034h-8.13l12.808-24.215h23.73c.968 0 1.788.185 2.458.553.67.369 1.153.87 1.453 1.505.299.633.405 1.383.315 2.249-.087.865-.389 1.782-.901 2.75a12.362 12.362 0 0 1-1.732 2.456 14.767 14.767 0 0 1-2.317 2.093 15.02 15.02 0 0 1-2.647 1.54c-.923.415-1.831.703-2.724.865a.753.753 0 0 0 .028.242c.021.07.03.15.027.243l.308 9.686h-8.13l-.302-8.718c-.01-.415-.151-.738-.421-.968-.27-.23-.636-.346-1.097-.346h-7.403l-5.324 10.067.001-.002Zm7.483-14.148h11.554c.416 0 .844-.08 1.287-.243a6.267 6.267 0 0 0 1.273-.64 6.58 6.58 0 0 0 1.142-.951c.356-.37.644-.76.864-1.176.22-.415.347-.808.38-1.176.034-.368-.012-.686-.136-.951a1.446 1.446 0 0 0-.596-.64c-.272-.162-.615-.242-1.03-.242h-11.554l-3.184 6.019Zm-35.196 4.082h7.576c.46 0 .832.115 1.113.345.282.23.428.553.44.969l.301 8.717h8.095l-.307-9.686c-.029-1.383-.511-2.467-1.446-3.252-.935-.783-2.197-1.175-3.788-1.175h-2.111l20.268-10.067h-8.13l-19.725 9.824 5.196-9.824h-8.13l-9.77 18.472h8.13l2.287-4.323h.001ZM73.777 35.092c-1.66 0-3.06-.316-4.201-.951-1.142-.634-1.969-1.499-2.486-2.595-.515-1.095-.701-2.38-.554-3.856.147-1.476.659-3.045 1.536-4.705.878-1.661 2.025-3.23 3.44-4.705a26.42 26.42 0 0 1 4.635-3.857 23.984 23.984 0 0 1 5.23-2.594c1.81-.634 3.547-.952 5.208-.952h18.68l-2.141 4.048H88.492c-1.107 0-2.258.213-3.452.64a16.424 16.424 0 0 0-3.458 1.728 17.885 17.885 0 0 0-3.084 2.56c-.946.98-1.711 2.022-2.296 3.13-.585 1.108-.924 2.15-1.015 3.13-.093.981.033 1.835.376 2.56.342.726.885 1.304 1.627 1.73.743.425 1.669.639 2.775.639h24.856l-2.141 4.047H73.776l.002.003Zm-22.293-.035h8.13l12.79-24.18h-8.13l-12.79 24.18Zm-24.734 0h-8.13l12.79-24.18h8.13l-5.6 10.585h14.53l5.599-10.585h8.13l-12.79 24.18h-8.13l5.051-9.548H31.801l-5.05 9.548Z" clip-rule="evenodd"/><path fill="#D32027" fill-rule="evenodd" d="M20.17 8.47 6.112 35.043h10.685L30.852 8.469h141.483l2.827-5.341H8.018L5.193 8.469H20.17ZM177.339 3.128l-2.824 5.341h8.128l2.826-5.341h-8.13Z" clip-rule="evenodd"/><path fill="#010101" d="m224.376 48.926-3.491-3.789v3.79h-1.58v-5.85h1.667l3.42 3.766v-3.765h1.572v5.848h-1.588ZM213.174 49.014h-.126c-2.579 0-3.388-1.612-3.388-2.925v-.212c0-1.242.754-2.877 3.419-2.877h.268c2.547 0 3.357 1.116 3.357 2.075v.016h-1.675c-.055-.15-.299-.77-1.808-.77-1.439 0-1.879.81-1.879 1.596v.102c0 .762.495 1.674 1.934 1.674 1.384 0 1.69-.739 1.714-.912h-1.588v-1.045h3.372v3.191h-1.289a3.576 3.576 0 0 0-.197-.81c-.133.166-.731.897-2.114.897ZM207.296 43.078v5.848h-1.619v-5.848h1.619ZM200.277 49.032h-.228c-2.744 0-3.058-1.242-3.058-1.942v-.086h1.761c.023.26.133.84 1.375.84h.056c1.218 0 1.375-.369 1.375-.699 0-.346-.228-.574-1.195-.605l-.778-.024c-1.918-.055-2.531-.825-2.531-1.706v-.07c0-.904.487-1.73 2.908-1.73h.268c2.586 0 2.94.944 2.94 1.714v.086h-1.738c-.039-.259-.188-.644-1.312-.644h-.079c-1.038 0-1.281.196-1.281.519 0 .298.212.518 1.132.558l.809.031c2.084.079 2.587.763 2.587 1.714v.094c0 .857-.393 1.95-3.011 1.95ZM189.353 43.078h5.354v1.273h-3.758v.951h3.64v1.321h-3.64v1.014h3.805v1.29h-5.401v-5.85ZM180.258 48.926v-5.848h2.995c3.051 0 3.75 1.532 3.75 2.72v.235c0 1.227-.534 2.893-3.742 2.893h-3.003Zm1.62-4.551v3.246h1.305c1.965 0 2.138-.959 2.138-1.619v-.047c0-.653-.189-1.58-2.138-1.58h-1.305ZM172.555 46.059c0-.236.036-.425.11-.566a.698.698 0 0 1 .314-.315c.136-.063.286-.094.448-.094.163 0 .31.031.441.094a.703.703 0 0 1 .314.315c.079.141.118.33.118.566 0 .23-.039.419-.118.566a.76.76 0 0 1-.314.314 1.007 1.007 0 0 1-.441.094c-.162 0-.312-.031-.448-.094a.754.754 0 0 1-.314-.315 1.257 1.257 0 0 1-.11-.566ZM160.256 48.927v-5.849h4.269c1.675 0 2.091.732 2.091 1.384v.087c0 .73-.636 1.1-1.077 1.155.661.094 1.368.511 1.368 1.447v.086c0 .794-.479 1.69-2.358 1.69h-4.293Zm4.033-4.63h-2.413v1.046h2.413c.488 0 .637-.236.637-.511v-.016c0-.283-.157-.519-.637-.519Zm.126 2.193h-2.539v1.156h2.539c.574 0 .731-.291.731-.59v-.031c0-.291-.157-.535-.731-.535ZM152.382 43.078h5.354v1.274h-3.758v.951h3.64v1.32h-3.64v1.015h3.805v1.29h-5.401v-5.85ZM143.979 48.927h-1.878l-2.013-5.849h1.737l1.29 4.206 1.226-4.206h1.887l1.234 4.222 1.282-4.221h1.595l-1.941 5.848h-1.934l-1.242-4.095-1.243 4.095ZM132.965 46.059c0-.236.037-.425.11-.566a.705.705 0 0 1 .315-.315c.136-.063.286-.094.448-.094.162 0 .309.031.44.094a.705.705 0 0 1 .315.315c.078.141.118.33.118.566 0 .23-.04.419-.118.566a.761.761 0 0 1-.315.314 1.006 1.006 0 0 1-.44.094c-.162 0-.312-.031-.448-.094a.761.761 0 0 1-.315-.315 1.27 1.27 0 0 1-.11-.566ZM123.499 49.015h-.126c-2.578 0-3.388-1.612-3.388-2.925v-.212c0-1.242.755-2.877 3.42-2.877h.267c2.547 0 3.357 1.116 3.357 2.075v.016h-1.675c-.055-.15-.298-.77-1.808-.77-1.438 0-1.879.81-1.879 1.595v.102c0 .763.496 1.675 1.934 1.675 1.384 0 1.691-.739 1.714-.912h-1.588v-1.045h3.373v3.191h-1.29a3.576 3.576 0 0 0-.196-.81c-.134.165-.731.897-2.115.897ZM116.029 48.927l-3.491-3.789v3.79h-1.58v-5.85h1.667l3.42 3.766v-3.766h1.572v5.85h-1.588ZM108.336 43.078v5.85h-1.619v-5.85h1.619ZM100.577 48.927v-4.512h-2.264v-1.337h6.14v1.337h-2.265v4.512h-1.611ZM90.839 43.078h5.353v1.274h-3.757v.951h3.64v1.32h-3.64v1.015h3.805v1.29h-5.401v-5.85ZM84.025 48.927h-1.62v-5.849h1.62v2.406l2.735-2.406h2.06l-3.082 2.681 3.216 3.168h-2.115l-2.814-2.751v2.751ZM75.13 44.368v1.242h2.256c.66 0 .84-.283.84-.621v-.016c0-.33-.18-.605-.84-.605h-2.257Zm3.56 1.745c.795.18 1.274.66 1.274 1.517v.605c0 .44.047.559.094.653v.04h-1.674c-.024-.04-.055-.15-.055-.41v-.48c0-.754-.275-1.1-1.093-1.1H75.13v1.99h-1.62v-5.85h3.94c2.224 0 2.476.928 2.476 1.565v.078c0 .732-.503 1.227-1.234 1.392ZM68.764 46.64l-1.061-2.382-1.03 2.382h2.09Zm1.022 2.287-.48-1.085h-3.16l-.472 1.085h-1.627l2.594-5.849h2.17l2.712 5.85h-1.737ZM54.101 48.927v-5.849h2.154l1.863 3.962 1.919-3.962h2.02v5.85h-1.58v-3.83l-1.777 3.83h-1.266l-1.776-3.83v3.83H54.1ZM43.166 43.078h1.62v4.473h3.576v1.376h-5.196v-5.849ZM38.421 46.64l-1.061-2.382-1.03 2.382h2.091Zm1.022 2.287-.48-1.085h-3.16l-.471 1.085h-1.628l2.594-5.849h2.17l2.712 5.85h-1.737ZM28.868 48.927v-4.512h-2.264v-1.337h6.14v1.337H30.48v4.512h-1.612ZM24.342 43.078v5.85h-1.619v-5.85h1.62ZM16.591 49.015h-.125c-2.579 0-3.389-1.612-3.389-2.925v-.212c0-1.242.755-2.877 3.42-2.877h.267c2.547 0 3.357 1.116 3.357 2.075v.016h-1.674c-.055-.15-.299-.77-1.808-.77-1.44 0-1.88.81-1.88 1.595v.102c0 .763.496 1.675 1.935 1.675 1.383 0 1.69-.739 1.713-.912H16.82v-1.045h3.373v3.191h-1.29a3.583 3.583 0 0 0-.196-.81c-.133.165-.731.897-2.115.897ZM10.714 43.078v5.85h-1.62v-5.85h1.62ZM0 48.927v-5.849h2.995c3.05 0 3.75 1.533 3.75 2.72v.236c0 1.227-.534 2.893-3.742 2.893H0Zm1.62-4.551v3.246h1.304c1.966 0 2.139-.959 2.139-1.62v-.046c0-.653-.189-1.58-2.139-1.58H1.62Z"/></svg>