<svg width="240" height="50" viewBox="0 0 240 50" fill="none" xmlns="http://www.w3.org/2000/svg">
<path fill-rule="evenodd" clip-rule="evenodd" d="M204.47 14.4336L212.454 5.11125C213.741 3.60955 215.271 2.37454 217.021 1.45473C218.716 0.565223 220.555 0 222.48 0H239.361L219.17 38.1715H201.363L203.605 33.9346C202.983 34.5104 202.289 35.0014 201.529 35.3878C200.48 35.9212 199.346 36.2531 198.165 36.2531H191.909C190.492 36.2531 189.165 35.7621 188.203 34.6999C187.319 33.724 186.975 32.495 187.081 31.2479L183.42 38.17H170.475L170.467 38.1851H147.225L146.878 28.1536H142.908L137.583 38.22H122.375L122.393 38.1851H114.396L114.049 28.1536H109.89L104.565 38.22H73.7775C71.7879 38.22 69.8088 37.8487 68.0556 36.8744C66.4024 35.9546 65.0976 34.6317 64.2809 32.9208L61.4957 38.1851H36.0849L41.1355 28.637H33.6831L28.6324 38.1851H13.4335L13.4411 38.17H0.921321L14.9761 11.5969H-7.62939e-06L6.1341 0H199.375C201.391 0 203.297 0.64099 204.609 2.2321C205.916 3.81412 206.188 5.7871 205.796 7.75553L204.467 14.4336H204.47ZM42.6978 11.5969L39.1337 18.3341H46.5862L50.1503 11.5969H42.6978ZM118.629 11.5969L117.588 13.5654L121.54 11.5969H118.629ZM94.7908 27.9172L100.008 18.0523H88.4915C87.6732 18.0523 86.8595 18.2356 86.0912 18.5099C85.1047 18.8615 84.1698 19.3388 83.2939 19.9116C82.368 20.5178 81.5179 21.2285 80.7496 22.0255C80.0511 22.7499 79.4373 23.5575 78.9676 24.447C78.6554 25.038 78.3645 25.7366 78.3008 26.4079C78.2751 26.6898 78.269 27.0807 78.3918 27.3429C78.469 27.5065 78.5918 27.6035 78.7479 27.6929C79.0721 27.8793 79.5995 27.9172 79.9647 27.9172H94.7893H94.7908ZM128.381 26.8686L133.875 16.4824L126.319 20.2344C127.637 21.5952 128.291 23.3545 128.33 25.2714L128.38 26.867L128.381 26.8686Z" fill="#010101"/>
<path fill-rule="evenodd" clip-rule="evenodd" d="M176.174 1.19107H199.377C201.032 1.19107 202.611 1.68053 203.692 2.9913C204.765 4.29146 204.952 5.90985 204.631 7.52369L202.414 18.6675L213.36 5.88712C214.55 4.49907 215.958 3.36104 217.576 2.51093C219.097 1.71235 220.751 1.19259 222.48 1.19259H237.383L218.453 36.9805H203.342L209.533 25.2775L203.397 32.442C202.715 33.2179 201.909 33.8589 200.988 34.3271C200.109 34.7741 199.157 35.0635 198.165 35.0635H191.909C190.83 35.0635 189.82 34.712 189.085 33.9013C188.289 33.0239 188.109 31.8874 188.359 30.76L189.818 23.5242L182.7 36.9805H169.752L169.744 36.9956H148.373L148.026 26.964H142.186L136.861 37.0305H124.352L124.37 36.9956H115.543L115.196 26.964H109.15L108.015 29.1113H108.033L103.845 37.0305H73.776C71.9909 37.0305 70.2074 36.7092 68.633 35.8349C67.1843 35.0287 66.0463 33.8786 65.3371 32.3738C64.9416 31.5343 64.7112 30.6509 64.6097 29.7477L60.7759 36.9956H38.0609L43.1115 27.4474H32.9633L27.9126 36.9956H15.4035L15.411 36.9805H2.89885L16.9537 10.4059H1.97752L6.85238 1.19107H176.174ZM41.9796 10.4059L37.1547 19.5267H47.303L52.1278 10.4059H41.9796ZM74.8428 10.4059L72.6107 14.6261C73.4017 13.9745 74.2291 13.3653 75.0898 12.8031C76.5355 11.8576 78.0645 11.0499 79.6631 10.4059H74.8428ZM117.91 10.4059L114.801 16.2839L126.604 10.4059H117.91ZM95.5076 29.1082L101.986 16.8612H88.4915C87.5353 16.8612 86.5898 17.0673 85.6912 17.3886C84.6153 17.7735 83.597 18.2902 82.6423 18.9145C81.6407 19.5692 80.7224 20.3374 79.8919 21.1982C79.1146 22.0043 78.4372 22.8999 77.9144 23.8894C77.525 24.6243 77.1931 25.4608 77.1143 26.2958C77.0658 26.811 77.0901 27.3747 77.3143 27.8505C77.4977 28.24 77.7826 28.5127 78.1554 28.7264C78.6842 29.0295 79.3676 29.1098 79.9662 29.1098H95.5091L95.5076 29.1082ZM127.333 31.3995L136.657 13.7715L124.102 20.0071C124.416 20.1889 124.716 20.3981 125.002 20.639C126.43 21.8376 127.099 23.4848 127.139 25.3123L127.333 31.401V31.3995ZM160.196 31.3979L163.831 24.5259C163.098 25.0062 162.33 25.429 161.53 25.7881C161.042 26.0079 160.545 26.2018 160.035 26.367L160.196 31.3979ZM146.397 19.0085H154.736C154.948 19.0085 155.162 18.9554 155.361 18.8827C155.67 18.7706 155.962 18.6206 156.236 18.4417C156.532 18.2478 156.802 18.019 157.047 17.7659C157.261 17.5462 157.449 17.3007 157.593 17.0294C157.618 16.981 157.647 16.9234 157.673 16.8612H147.532L146.397 19.0085Z" fill="white"/>
<path fill-rule="evenodd" clip-rule="evenodd" d="M181.537 35.0438H170.807L187.687 3.12918H199.377C200.656 3.12918 201.595 3.49438 202.198 4.22477C202.801 4.95517 202.979 5.92954 202.73 7.14636L199.071 25.5472L214.83 7.14636C215.87 5.92954 217.085 4.95517 218.476 4.22477C219.867 3.49438 221.201 3.12918 222.48 3.12918H234.168L217.287 35.0438H206.557L219.381 10.7983L201.944 31.163C201.409 31.7722 200.798 32.2511 200.11 32.6011C199.422 32.9511 198.775 33.1269 198.166 33.1269H191.911C191.302 33.1269 190.839 32.9527 190.521 32.6011C190.204 32.2511 190.115 31.7722 190.254 31.163L194.36 10.7983L181.535 35.0438H181.537ZM160.451 35.0575H168.58L181.37 10.8771H173.24L160.451 35.0575ZM135.699 35.0923H127.569L140.377 10.8771H164.107C165.075 10.8771 165.895 11.062 166.565 11.4302C167.235 11.7985 167.718 12.3 168.018 12.935C168.317 13.5684 168.423 14.3185 168.333 15.1837C168.246 16.049 167.944 16.9658 167.432 17.9341C166.98 18.7872 166.403 19.6055 165.7 20.3905C164.997 21.1739 164.224 21.8725 163.383 22.4832C162.54 23.0938 161.658 23.6075 160.736 24.0227C159.813 24.4379 158.905 24.7259 158.012 24.888C158.009 24.9804 158.019 25.0608 158.04 25.1305C158.061 25.2002 158.07 25.2805 158.067 25.3729L158.375 35.059H150.245L149.943 26.3412C149.933 25.926 149.792 25.6032 149.522 25.3729C149.252 25.1426 148.886 25.0274 148.425 25.0274H141.022L135.698 35.0938L135.699 35.0923ZM143.182 20.9436H154.736C155.152 20.9436 155.58 20.8632 156.023 20.7011C156.465 20.539 156.89 20.3268 157.296 20.0616C157.702 19.7964 158.082 19.4797 158.438 19.11C158.794 18.7403 159.082 18.3493 159.302 17.9341C159.522 17.5189 159.649 17.1264 159.682 16.7582C159.716 16.39 159.67 16.0717 159.546 15.8065C159.422 15.5414 159.223 15.3277 158.95 15.1671C158.678 15.0049 158.335 14.9246 157.92 14.9246H146.366L143.182 20.9436ZM107.986 25.0259H115.562C116.022 25.0259 116.394 25.1411 116.675 25.3714C116.957 25.6017 117.103 25.9245 117.115 26.3397L117.416 35.0575H125.511L125.204 25.3714C125.175 23.9879 124.693 22.9044 123.758 22.1195C122.823 21.336 121.561 20.9436 119.97 20.9436H117.859L138.127 10.8771H129.997L110.272 20.7011L115.468 10.8771H107.338L97.5684 29.3492H105.698L107.985 25.0259H107.986ZM73.7775 35.0923C72.1167 35.0923 70.7165 34.7756 69.5755 34.1407C68.4344 33.5073 67.6071 32.642 67.0903 31.5464C66.5751 30.4508 66.3887 29.1658 66.5357 27.6899C66.6827 26.2139 67.1949 24.6455 68.0723 22.9847C68.9497 21.3239 70.0968 19.7555 71.5121 18.2796C72.9274 16.8036 74.4716 15.5171 76.1475 14.423C77.822 13.3274 79.5646 12.4622 81.377 11.8288C83.1878 11.1954 84.9244 10.8771 86.5852 10.8771H105.265L103.124 14.9246H88.4915C87.3853 14.9246 86.2337 15.1383 85.0396 15.5641C83.8455 15.9914 82.6923 16.5672 81.5816 17.2931C80.4708 18.0189 79.4434 18.8736 78.4978 19.8525C77.5523 20.8329 76.787 21.8755 76.2021 22.9832C75.6172 24.0909 75.2777 25.1335 75.1868 26.1139C75.0944 27.0943 75.2201 27.9475 75.5626 28.6733C75.9051 29.3992 76.4476 29.9765 77.1901 30.4023C77.9326 30.8282 78.8585 31.0418 79.9647 31.0418H104.821L102.68 35.0893H73.776L73.7775 35.0923ZM51.4838 35.0575H59.6136L72.4031 10.8771H64.2733L51.4838 35.0575ZM26.7504 35.0575H18.6205L31.41 10.8771H39.5399L33.9407 21.4618H48.4698L54.069 10.8771H62.1988L49.4093 35.0575H41.2795L46.3301 25.5093H31.801L26.7504 35.0575Z" fill="#010101"/>
<path fill-rule="evenodd" clip-rule="evenodd" d="M20.1692 8.46927L6.11289 35.0439H16.7976L30.8524 8.46927H172.335L175.162 3.12769H8.01768L5.19308 8.46927H20.1692Z" fill="#D32027"/>
<path fill-rule="evenodd" clip-rule="evenodd" d="M177.339 3.12769L174.515 8.46927H182.643L185.469 3.12769H177.339Z" fill="#D32027"/>
<path d="M224.376 48.9264L220.885 45.1372V48.9264H219.305V43.0776H220.972L224.392 46.8431V43.0776H225.964V48.9264H224.376Z" fill="white"/>
<path d="M213.174 49.0138H213.048C210.469 49.0138 209.66 47.4023 209.66 46.0895V45.8772C209.66 44.6351 210.414 43 213.079 43H213.347C215.894 43 216.704 44.1163 216.704 45.0754V45.0911H215.029C214.974 44.9417 214.73 44.3207 213.221 44.3207C211.782 44.3207 211.342 45.1304 211.342 45.9165V46.0187C211.342 46.7812 211.837 47.6931 213.276 47.6931C214.66 47.6931 214.966 46.9542 214.99 46.7812H213.402V45.7357H216.774V48.9274H215.485C215.469 48.723 215.367 48.3063 215.288 48.1177C215.155 48.2827 214.557 49.0138 213.174 49.0138Z" fill="white"/>
<path d="M207.296 43.0776V48.9264H205.677V43.0776H207.296Z" fill="white"/>
<path d="M200.277 49.0319H200.049C197.305 49.0319 196.991 47.7898 196.991 47.0902V47.0037H198.752C198.775 47.2631 198.885 47.8449 200.127 47.8449H200.183C201.401 47.8449 201.558 47.4754 201.558 47.1452C201.558 46.7993 201.33 46.5714 200.363 46.5399L199.585 46.5163C197.667 46.4613 197.054 45.6909 197.054 44.8104V44.7397C197.054 43.8357 197.541 43.0102 199.962 43.0102H200.23C202.816 43.0102 203.17 43.9536 203.17 44.724V44.8104H201.432C201.393 44.551 201.244 44.1658 200.12 44.1658H200.041C199.003 44.1658 198.76 44.3624 198.76 44.6847C198.76 44.9834 198.972 45.2035 199.892 45.2428L200.701 45.2743C202.785 45.3529 203.288 46.0368 203.288 46.988V47.0823C203.288 47.9392 202.895 49.0319 200.277 49.0319Z" fill="white"/>
<path d="M189.353 43.0776H194.707V44.3511H190.949V45.3023H194.589V46.623H190.949V47.6371H194.754V48.9264H189.353V43.0776Z" fill="white"/>
<path d="M180.258 48.9264V43.0776H183.253C186.304 43.0776 187.003 44.6105 187.003 45.7976V46.0334C187.003 47.2598 186.469 48.9264 183.261 48.9264H180.258ZM181.878 44.3747V47.6214H183.183C185.148 47.6214 185.321 46.6623 185.321 46.002V45.9548C185.321 45.3023 185.132 44.3747 183.183 44.3747H181.878Z" fill="white"/>
<path d="M172.555 46.0585C172.555 45.8227 172.591 45.634 172.665 45.4925C172.743 45.3458 172.848 45.2409 172.979 45.178C173.115 45.1152 173.265 45.0837 173.427 45.0837C173.59 45.0837 173.737 45.1152 173.868 45.178C173.999 45.2409 174.103 45.3458 174.182 45.4925C174.261 45.634 174.3 45.8227 174.3 46.0585C174.3 46.2891 174.261 46.4778 174.182 46.6245C174.103 46.766 173.999 46.8708 173.868 46.939C173.737 47.0018 173.59 47.0333 173.427 47.0333C173.265 47.0333 173.115 47.0018 172.979 46.939C172.848 46.8708 172.743 46.766 172.665 46.6245C172.591 46.4778 172.555 46.2891 172.555 46.0585Z" fill="white"/>
<path d="M160.256 48.9273V43.0785H164.525C166.2 43.0785 166.616 43.8096 166.616 44.4621V44.5486C166.616 45.2797 165.98 45.6491 165.539 45.7042C166.2 45.7985 166.907 46.2151 166.907 47.1506V47.2371C166.907 48.0311 166.428 48.9273 164.549 48.9273H160.256ZM164.289 44.297H161.876V45.3426H164.289C164.777 45.3426 164.926 45.1067 164.926 44.8316V44.8159C164.926 44.5328 164.769 44.297 164.289 44.297ZM164.415 46.4903H161.876V47.6459H164.415C164.989 47.6459 165.146 47.355 165.146 47.0563V47.0249C165.146 46.734 164.989 46.4903 164.415 46.4903Z" fill="white"/>
<path d="M152.382 43.0785H157.736V44.352H153.978V45.3032H157.618V46.6239H153.978V47.638H157.783V48.9273H152.382V43.0785Z" fill="white"/>
<path d="M143.979 48.9273H142.101L140.088 43.0785H141.825L143.115 47.2843L144.341 43.0785H146.228L147.462 47.3L148.744 43.0785H150.339L148.398 48.9273H146.464L145.222 44.8316L143.979 48.9273Z" fill="white"/>
<path d="M132.965 46.0585C132.965 45.8227 133.002 45.634 133.075 45.4925C133.154 45.3458 133.259 45.2409 133.39 45.178C133.526 45.1152 133.676 45.0837 133.838 45.0837C134 45.0837 134.147 45.1152 134.278 45.178C134.409 45.2409 134.514 45.3458 134.593 45.4925C134.671 45.634 134.711 45.8227 134.711 46.0585C134.711 46.2891 134.671 46.4778 134.593 46.6245C134.514 46.766 134.409 46.8708 134.278 46.939C134.147 47.0018 134 47.0333 133.838 47.0333C133.676 47.0333 133.526 47.0018 133.39 46.939C133.259 46.8708 133.154 46.766 133.075 46.6245C133.002 46.4778 132.965 46.2891 132.965 46.0585Z" fill="white"/>
<path d="M123.499 49.0146H123.373C120.795 49.0146 119.985 47.4031 119.985 46.0903V45.878C119.985 44.6359 120.74 43.0008 123.405 43.0008H123.672C126.219 43.0008 127.029 44.1171 127.029 45.0762V45.0919H125.354C125.299 44.9425 125.056 44.3215 123.546 44.3215C122.108 44.3215 121.667 45.1312 121.667 45.9173V46.0195C121.667 46.782 122.163 47.6939 123.601 47.6939C124.985 47.6939 125.292 46.955 125.315 46.782H123.727V45.7365H127.1V48.9282H125.81C125.795 48.7238 125.692 48.3071 125.614 48.1184C125.48 48.2835 124.883 49.0146 123.499 49.0146Z" fill="white"/>
<path d="M116.029 48.9272L112.538 45.1381V48.9272H110.958V43.0784H112.625L116.045 46.844V43.0784H117.617V48.9272H116.029Z" fill="white"/>
<path d="M108.336 43.0784V48.9272H106.717V43.0784H108.336Z" fill="white"/>
<path d="M100.577 48.9272V44.4148H98.3127V43.0784H104.453V44.4148H102.188V48.9272H100.577Z" fill="white"/>
<path d="M90.8388 43.0784H96.1925V44.3519H92.4347V45.3032H96.0745V46.6238H92.4347V47.6379H96.2396V48.9272H90.8388V43.0784Z" fill="white"/>
<path d="M84.0246 48.9272H82.4051V43.0784H84.0246V45.484L86.7604 43.0784H88.8201L85.7384 45.7591L88.9537 48.9272H86.839L84.0246 46.1758V48.9272Z" fill="white"/>
<path d="M75.1294 44.3677V45.6097H77.3856C78.046 45.6097 78.2268 45.3267 78.2268 44.9887V44.973C78.2268 44.6428 78.046 44.3677 77.3856 44.3677H75.1294ZM78.6906 46.1129C79.4846 46.2937 79.9642 46.7732 79.9642 47.6301V48.2354C79.9642 48.6756 80.0114 48.7935 80.0585 48.8879V48.9272H78.384C78.3604 48.8879 78.329 48.7778 78.329 48.5184V48.0389C78.329 47.2842 78.0538 46.9383 77.2362 46.9383H75.1294V48.9272H73.5099V43.0784H77.4485C79.6733 43.0784 79.9249 44.0061 79.9249 44.6428V44.7214C79.9249 45.4525 79.4218 45.9478 78.6906 46.1129Z" fill="white"/>
<path d="M68.7639 46.6396L67.7026 44.2576L66.6728 46.6396H68.7639ZM69.7859 48.9272L69.3064 47.8423H66.146L65.6744 48.9272H64.047L66.6413 43.0784H68.8111L71.5233 48.9272H69.7859Z" fill="white"/>
<path d="M54.1012 48.9272V43.0784H56.2552L58.1184 47.0405L60.0366 43.0784H62.057V48.9272H60.4769V45.0988L58.7002 48.9272H57.4345L55.6578 45.0988V48.9272H54.1012Z" fill="white"/>
<path d="M43.166 43.0784H44.7855V47.5515H48.3624V48.9272H43.166V43.0784Z" fill="white"/>
<path d="M38.421 46.6396L37.3597 44.2576L36.3299 46.6396H38.421ZM39.443 48.9272L38.9635 47.8423H35.8031L35.3315 48.9272H33.7041L36.2984 43.0784H38.4682L41.1804 48.9272H39.443Z" fill="white"/>
<path d="M28.868 48.9272V44.4148H26.6039V43.0784H32.7437V44.4148H30.4796V48.9272H28.868Z" fill="white"/>
<path d="M24.3424 43.0784V48.9272H22.723V43.0784H24.3424Z" fill="white"/>
<path d="M16.5914 49.0146H16.4656C13.887 49.0146 13.0773 47.4031 13.0773 46.0903V45.878C13.0773 44.6359 13.832 43.0008 16.4971 43.0008H16.7644C19.3115 43.0008 20.1212 44.1171 20.1212 45.0762V45.0919H18.4467C18.3917 44.9425 18.148 44.3215 16.6386 44.3215C15.1999 44.3215 14.7597 45.1312 14.7597 45.9173V46.0195C14.7597 46.782 15.255 47.6939 16.6936 47.6939C18.0772 47.6939 18.3838 46.955 18.4074 46.782H16.8194V45.7365H20.192V48.9282H18.9027C18.887 48.7238 18.7848 48.3071 18.7062 48.1184C18.5725 48.2835 17.975 49.0146 16.5914 49.0146Z" fill="white"/>
<path d="M10.7138 43.0784V48.9272H9.09428V43.0784H10.7138Z" fill="white"/>
<path d="M-9.53674e-06 48.9272V43.0784H2.99523C6.0455 43.0784 6.74517 44.6114 6.74517 45.7984V46.0342C6.74517 47.2606 6.21059 48.9272 3.00309 48.9272H-9.53674e-06ZM1.61946 44.3755V47.6222H2.92448C4.88986 47.6222 5.06281 46.6631 5.06281 46.0028V45.9556C5.06281 45.3032 4.87413 44.3755 2.92448 44.3755H1.61946Z" fill="white"/>
</svg>
