<svg xmlns="http://www.w3.org/2000/svg" width="3990" height="725" fill="none"><path fill="#fff" d="m1743.8 135.039-37.31 70.529h-254.97c-19.28 0-39.35 3.724-60.15 11.144-20.81 7.446-40.91 17.481-60.26 30.129-19.36 12.648-37.26 27.541-53.74 44.599-16.47 17.085-29.81 35.252-40 54.554-10.2 19.303-16.11 37.47-17.69 54.555-1.61 17.084.58 31.95 6.54 44.598 5.97 12.649 15.43 22.709 28.36 30.129 12.94 7.42 29.08 11.144 48.35 11.144h433.14l-37.32 70.529-503.63.053c-28.94 0-53.34-5.519-73.22-16.583-19.89-11.038-34.31-26.115-43.31-45.206-8.98-19.091-12.23-41.483-9.66-67.202 2.56-25.719 11.48-53.05 26.77-81.99 15.29-28.941 35.28-56.271 59.94-81.99 24.66-25.719 51.57-48.138 80.78-67.203 29.18-19.091 59.54-34.168 91.12-45.206 31.56-11.038 61.82-16.583 90.76-16.583h325.5Z"/><path fill="#fff" fill-rule="evenodd" d="M2769.17 135.039c16.87 0 31.16 3.221 42.83 9.638 11.67 6.416 20.1 15.157 25.32 26.221 5.21 11.038 7.05 24.109 5.5 39.186-1.54 15.078-6.79 31.054-15.72 47.927-7.86 14.866-17.93 29.125-30.18 42.803-12.25 13.652-25.72 25.825-40.37 36.466-14.68 10.642-30.05 19.593-46.13 26.828-16.08 7.236-31.9 12.253-47.45 15.079-.05 1.409.07 2.657.34 3.76l.26.928c.28 1.104.39 2.351.35 3.761l5.36 168.785h-141.67l-5.25-151.912c-.19-7.235-2.64-12.86-7.34-16.873-4.7-4.014-11.1-6.021-19.12-6.021h-128.99l-92.77 175.387h-141.66l223.18-421.963h413.51Zm-364.64 175.413h201.35c7.23 0 14.71-1.399 22.42-4.224a109.2 109.2 0 0 0 22.18-11.144c7.07-4.621 13.7-10.14 19.91-16.583 6.2-6.443 11.22-13.255 15.05-20.49 3.83-7.235 6.05-14.075 6.63-20.491.58-6.417-.22-11.963-2.38-16.583-2.17-4.621-5.63-8.344-10.38-11.143-4.6-2.737-10.35-4.136-17.28-4.221l-.67-.005h-201.35l-55.48 104.884Z" clip-rule="evenodd"/><path fill="#fff" d="M500.936 319.482h253.177l97.569-184.443h141.667L770.484 556.395H628.818l88.01-166.382H463.65l-88.009 166.382H233.974l222.864-421.356h141.666l-97.568 184.443ZM948.312 556.395H806.645l222.865-421.356h141.66L948.312 556.395ZM1831.05 306.228l343.72-171.189h141.67l-353.18 175.413h36.78l1.3.005c27.12.21 48.68 7.048 64.72 20.486 16.29 13.678 24.69 32.558 25.19 56.666l5.36 168.786h-141.06l-5.26-151.913c-.21-7.235-2.74-12.859-7.65-16.873-4.76-3.888-10.98-5.893-18.66-6.014l-.75-.006h-132l-39.88 75.336h-141.66l170.24-321.886h141.66l-90.54 171.189ZM2847.11 556.395h-141.67l222.87-421.356h141.66l-222.86 421.356Z"/><path fill="#fff" d="m2961.79 0-49.24 93.08H447.128L202.215 556.157H16.028L260.968 93.08H0L49.22 0h2912.57ZM3383.75.02c22.29 0 38.66 6.364 49.17 19.091 10.51 12.728 13.6 29.707 9.27 50.91l-63.77 320.644 274.62-320.644c18.11-21.203 39.29-38.182 63.53-50.91C3740.81 6.384 3764.05.02 3786.33.02H3990l-294.16 556.13h-186.98l223.47-422.491-303.85 354.866c-9.32 10.615-19.96 18.959-31.95 25.059-11.99 6.1-23.26 9.163-33.88 9.163h-109c-10.61 0-18.67-3.037-24.21-9.163-5.52-6.1-7.08-14.444-4.65-25.059l71.53-354.866-223.44 422.491H2885.9L3180.06.02h203.69ZM3092.16 93.08h-141.64L2999.74 0h141.67l-49.25 93.08ZM3276.91 626.125c42.12 0 47.88 15.364 47.88 27.911v1.408h-28.3c-.64-4.225-3.07-10.499-21.38-10.499h-1.28c-16.9 0-20.87 3.201-20.87 8.451 0 4.865 3.46 8.449 18.44 9.089l13.19.513c33.92 1.28 42.12 12.419 42.12 27.91v1.537c0 13.956-6.4 31.751-49.04 31.751h-3.71c-44.68 0-49.8-20.228-49.8-31.623v-1.408h28.67c.39 4.225 2.18 13.699 22.41 13.699h.9c19.84 0 22.4-6.018 22.4-11.395 0-5.633-3.71-9.347-19.46-9.859l-12.67-.383c-31.24-.897-41.23-13.443-41.23-27.783v-1.152c0-14.724 7.94-28.167 47.37-28.167h4.36ZM289.024 626c41.482 0 54.669 18.18 54.669 33.8v.257h-27.27c-.882-2.395-4.742-12.234-28.311-12.54l-1.136-.008c-23.43 0-30.6 13.187-30.6 25.99v1.665c0 12.419 8.067 27.271 31.496 27.271 21.829-.001 27.197-11.295 27.86-14.562l.05-.29H289.92v-17.028h54.926v51.98h-20.997c-.256-3.329-1.921-10.115-3.202-13.187-2.176 2.688-11.907 14.595-34.44 14.595h-2.048c-41.994 0-55.181-26.246-55.181-47.627v-3.457c0-20.228 12.29-46.859 55.693-46.859h4.353ZM2030.12 626c41.48 0 54.67 18.18 54.67 33.8v.257h-27.27c-.89-2.395-4.75-12.234-28.31-12.54l-1.14-.008c-23.43 0-30.6 13.187-30.6 25.99v1.665c0 12.419 8.07 27.271 31.49 27.271 21.83-.001 27.2-11.296 27.87-14.562l.05-.29h-25.87v-17.028h54.93v51.98h-21c-.25-3.329-1.92-10.115-3.2-13.187-2.18 2.688-11.91 14.595-34.44 14.595h-2.05c-41.99 0-55.18-26.246-55.18-47.627v-3.457c0-20.228 12.29-46.859 55.69-46.859h4.36ZM3490.52 626c41.48 0 54.67 18.18 54.67 33.8v.257h-27.27c-.89-2.395-4.75-12.234-28.31-12.54l-1.14-.008c-23.43 0-30.6 13.187-30.6 25.99v1.665c0 12.419 8.07 27.271 31.5 27.271 21.83-.001 27.19-11.296 27.86-14.562l.05-.29h-25.87v-17.028h54.93v51.98h-21c-.25-3.329-1.92-10.115-3.2-13.187-2.17 2.688-11.91 14.595-34.44 14.595h-2.05c-41.99 0-55.18-26.246-55.18-47.627v-3.457c0-20.228 12.29-46.859 55.7-46.859h4.35Z"/><path fill="#fff" fill-rule="evenodd" d="M64.78 627.277c49.675 0 61.071 24.967 61.071 44.299v3.841c0 19.973-8.707 47.115-60.943 47.115H16v-95.255h48.78Zm-22.406 74.002h21.254c32.007 0 34.824-15.619 34.824-26.374v-.768c0-10.461-2.978-25.264-33.357-25.724l-1.467-.011H42.374v52.877Z" clip-rule="evenodd"/><path fill="#fff" d="M190.484 722.532H164.11v-95.255h26.374v95.255ZM412.438 722.532h-26.375v-95.255h26.375v95.255ZM549.258 627.277v21.766h-36.873v73.489h-26.246v-73.489h-36.873v-21.766h99.992Z"/><path fill="#fff" fill-rule="evenodd" d="M686.646 722.532h-28.294l-7.811-17.668h-51.468l-7.682 17.668h-26.502l42.25-95.255h35.337l44.17 95.255Zm-78.995-37.257h34.056l-17.284-38.793-16.772 38.793Z" clip-rule="evenodd"/><path fill="#fff" d="M745.368 627.277v72.85h58.254v22.405h-84.628v-95.255h26.374ZM932.142 627.277l30.343 64.528 31.24-64.528h32.905v95.255h-25.74v-62.35l-28.93 62.35h-20.613l-28.935-62.35v62.35h-25.35v-95.255h35.08Z"/><path fill="#fff" fill-rule="evenodd" d="M1180.82 722.532h-28.3l-7.81-17.668h-51.47l-7.68 17.668h-26.5l42.25-95.255h35.33l44.18 95.255Zm-79-37.257h34.06l-17.29-38.793-16.77 38.793ZM1277.31 627.277c36.23 0 40.33 15.108 40.33 25.479v1.28c0 11.907-8.2 19.973-20.1 22.661 12.93 2.945 20.74 10.755 20.74 24.71v9.859c0 7.169.76 9.089 1.53 10.626v.64h-27.27c-.38-.64-.89-2.432-.89-6.657v-7.811c0-12.098-4.35-17.746-17.18-17.919l-.62-.004h-34.31v32.391h-26.38v-95.255h64.15Zm-37.77 41.226h36.74c10.76 0 13.7-4.609 13.7-10.114v-.256c0-5.209-2.76-9.578-12.71-9.846l-.99-.013h-36.74v20.229Z" clip-rule="evenodd"/><path fill="#fff" d="M1384.4 627.277v39.178l44.55-39.178h33.55l-50.19 43.659 52.36 51.596h-34.44l-45.83-44.81v44.81h-26.38v-95.255h26.38ZM1582.57 648.019h-61.2v15.491h59.28v21.51h-59.28v16.515h61.97v20.997h-87.96v-95.255h87.19v20.742ZM1717.09 627.277v21.766h-36.87v73.489h-26.25v-73.489h-36.87v-21.766h99.99ZM1780.34 722.532h-26.37v-95.255h26.37v95.255ZM1850.2 627.277l55.7 61.327v-61.327h25.6v95.255h-25.86l-56.85-61.711v61.711h-25.73v-95.255h27.14ZM2325.75 627.277l20.99 68.496 19.98-68.496h30.72l20.1 68.753 20.87-68.753h25.99l-31.62 95.255h-31.5l-20.22-66.704-20.23 66.704h-30.6l-32.78-95.255h28.3ZM2584.86 648.019h-61.2v15.491h59.28v21.51h-59.28v16.515h61.97v20.997h-87.96v-95.255h87.19v20.742Z"/><path fill="#fff" fill-rule="evenodd" d="M2695.42 627.277c27.27 0 34.06 11.907 34.06 22.534v1.408c0 11.907-10.37 17.925-17.54 18.821 10.75 1.536 22.28 8.322 22.28 23.558v1.408c0 12.931-7.81 27.526-38.41 27.526h-69.91v-95.255h69.52Zm-43.14 74.386h41.35c9.35 0 11.91-4.737 11.91-9.602v-.512c0-4.589-2.41-8.457-11.05-8.695l-.86-.011h-41.35v18.82Zm0-37.513h39.3c7.94 0 10.37-3.841 10.37-8.322v-.256c0-4.465-2.4-8.209-9.65-8.439l-.72-.011h-39.3v17.028ZM3000.43 627.277c49.68 0 61.08 24.967 61.08 44.299v3.841c0 19.973-8.71 47.115-60.95 47.115h-48.9v-95.255h48.77Zm-22.4 74.002h21.25c32.01 0 34.83-15.619 34.83-26.374v-.768c0-10.461-2.98-25.264-33.36-25.724l-1.47-.011h-21.25v52.877Z" clip-rule="evenodd"/><path fill="#fff" d="M3186.96 648.019h-61.2v15.491h59.27v21.51h-59.27v16.515h61.96v20.997h-87.95v-95.255h87.19v20.742ZM3391.98 722.532h-26.37v-95.255h26.37v95.255ZM3670.39 688.604v-61.327H3696v95.255h-25.86l-56.85-61.711v61.711h-25.73v-95.255h27.14l55.69 61.327ZM2195.66 659.926c2.65 0 5.04.512 7.17 1.536s3.84 2.731 5.12 5.121c1.28 2.305 1.92 5.378 1.92 9.219 0 3.755-.64 6.828-1.92 9.218-1.28 2.304-2.99 4.011-5.12 5.121-2.13 1.024-4.52 1.537-7.17 1.537-2.64 0-5.08-.513-7.3-1.537-2.13-1.11-3.84-2.817-5.12-5.121-1.19-2.39-1.79-5.463-1.79-9.218 0-3.841.6-6.914 1.79-9.219 1.28-2.39 2.99-4.097 5.12-5.121 2.22-1.024 4.66-1.536 7.3-1.536ZM2840.39 659.926c2.65 0 5.04.512 7.17 1.536 2.14 1.024 3.84 2.731 5.12 5.121 1.28 2.305 1.92 5.378 1.92 9.219 0 3.755-.64 6.828-1.92 9.218-1.28 2.304-2.98 4.011-5.12 5.121-2.13 1.024-4.52 1.537-7.17 1.537-2.64 0-5.08-.513-7.3-1.537-2.13-1.11-3.84-2.817-5.12-5.121-1.19-2.39-1.79-5.463-1.79-9.218 0-3.841.6-6.914 1.79-9.219 1.28-2.39 2.99-4.097 5.12-5.121 2.22-1.024 4.66-1.536 7.3-1.536Z"/></svg>