<svg width="245" height="35" viewBox="0 0 245 35" fill="none" xmlns="http://www.w3.org/2000/svg">
<path fill-rule="evenodd" clip-rule="evenodd" d="M16.0243 5.71521L0.984181 34.1486H12.4167L27.4551 5.71521H178.84L181.864 0H3.02228L-7.62939e-06 5.71521H16.0243Z" fill="white"/>
<path d="M174.823 34.1645H166.124L179.809 8.29285H188.508L174.823 34.1645Z" fill="white"/>
<path fill-rule="evenodd" clip-rule="evenodd" d="M139.639 34.2018H130.941L144.645 8.29285H170.036C171.072 8.29285 171.949 8.49065 172.666 8.88464C173.382 9.27862 173.9 9.81528 174.221 10.4946C174.54 11.1723 174.654 11.9749 174.558 12.9007C174.464 13.8265 174.141 14.8074 173.593 15.8434C173.11 16.7562 172.492 17.6317 171.74 18.4716C170.988 19.3098 170.161 20.0573 169.261 20.7107C168.359 21.3641 167.416 21.9137 166.428 22.3579C165.441 22.8022 164.47 23.1102 163.515 23.2837C163.511 23.3826 163.521 23.4686 163.544 23.5431C163.566 23.6177 163.576 23.7037 163.573 23.8026L163.902 34.1661H155.203L154.881 24.8386C154.869 24.3943 154.718 24.049 154.43 23.8026C154.141 23.5561 153.749 23.4329 153.256 23.4329H145.335L139.639 34.2018ZM160.009 19.0634H147.646L151.053 12.6234H163.416C163.86 12.6234 164.226 12.7094 164.518 12.8829C164.81 13.0547 165.022 13.2833 165.155 13.5671C165.288 13.8508 165.337 14.1913 165.301 14.5853C165.266 14.9792 165.13 15.3992 164.894 15.8434C164.659 16.2877 164.351 16.706 163.97 17.1016C163.589 17.4972 163.182 17.836 162.748 18.1198C162.313 18.4035 161.859 18.6305 161.386 18.804C160.912 18.9775 160.453 19.0634 160.009 19.0634Z" fill="white"/>
<path fill-rule="evenodd" clip-rule="evenodd" d="M109.987 23.4313H118.092C118.585 23.4313 118.982 23.5545 119.284 23.8009C119.585 24.0474 119.741 24.3927 119.754 24.837L120.077 34.1645H128.738L128.409 23.8009C128.378 22.3207 127.863 21.1614 126.862 20.3215C125.862 19.4833 124.511 19.0634 122.809 19.0634H120.55L142.236 8.29285H133.537L112.432 18.804L117.992 8.29285H109.293L98.8395 28.0569H107.538L109.987 23.4313Z" fill="white"/>
<path d="M68.8893 33.1836C70.1102 33.863 71.6084 34.2018 73.3854 34.2018L88.8479 34.2002L104.31 34.1986L106.601 29.868H99.9524H93.3035H86.6545H80.0056C78.822 29.868 77.8313 29.6394 77.0368 29.1838C76.2423 28.7282 75.6619 28.1105 75.2954 27.3338C74.929 26.5572 74.7944 25.6444 74.8933 24.5954C74.9906 23.5464 75.3538 22.4309 75.9797 21.2457C76.6055 20.0605 77.4243 18.945 78.4361 17.896C79.4478 16.8486 80.5471 15.9342 81.7356 15.1576C82.9241 14.381 84.158 13.7649 85.4356 13.3076C86.7133 12.852 87.9456 12.6234 89.1292 12.6234H104.785L107.076 8.29285H87.0895C85.3124 8.29285 83.4543 8.63333 81.5167 9.31105C79.5775 9.98876 77.7129 10.9145 75.9213 12.0868C74.128 13.2574 72.4758 14.6339 70.9614 16.2131C69.447 17.7923 68.2196 19.4703 67.2808 21.2473C66.3421 23.0243 65.794 24.7024 65.6367 26.2816C65.4795 27.8608 65.6789 29.2357 66.2302 30.4079C66.7831 31.5801 67.6684 32.5059 68.8893 33.1836Z" fill="white"/>
<path d="M58.2288 34.1645H49.53L63.2146 8.29285H71.9134L58.2288 34.1645Z" fill="white"/>
<path d="M14.3679 34.1645H23.0667L28.4708 23.9485H44.0168L38.6127 34.1645H47.3115L54.1538 21.2287L60.9961 8.29285H52.2973L46.3062 19.6179H30.7602L36.7513 8.29285H28.0525L21.2102 21.2287L14.3679 34.1645Z" fill="white"/>
<path fill-rule="evenodd" clip-rule="evenodd" d="M184.194 0L181.172 5.71521H189.869L192.893 0H184.194Z" fill="white"/>
<path fill-rule="evenodd" clip-rule="evenodd" d="M188.686 34.149H177.204L195.267 0.00205231H207.774C209.143 0.00205231 210.148 0.392794 210.793 1.17428C211.439 1.95576 211.628 2.99828 211.362 4.30022L207.447 23.9881L224.309 4.30022C225.422 2.99828 226.722 1.95576 228.21 1.17428C229.699 0.392794 231.126 0.00205231 232.494 0.00205231H245L226.938 34.149H215.457L229.178 8.20764L210.521 29.9968C209.949 30.6486 209.295 31.1609 208.559 31.5354C207.823 31.91 207.131 32.098 206.479 32.098H199.786C199.134 32.098 198.639 31.9116 198.299 31.5354C197.96 31.1609 197.864 30.6486 198.013 29.9968L202.406 8.20764L188.686 34.149Z" fill="white"/>
</svg>
