<svg xmlns="http://www.w3.org/2000/svg" width="3990" height="557" fill="none"><path fill="#fff" d="m1743.8 135.039-37.31 70.529h-254.97c-19.28 0-39.35 3.724-60.15 11.144-20.81 7.446-40.91 17.481-60.26 30.129-19.36 12.648-37.26 27.541-53.74 44.599-16.47 17.085-29.81 35.252-40 54.554-10.2 19.303-16.11 37.47-17.69 54.555-1.61 17.084.58 31.95 6.54 44.598 5.97 12.649 15.43 22.709 28.36 30.129 12.94 7.42 29.08 11.144 48.35 11.144h433.14l-37.32 70.529-503.63.053c-28.94 0-53.34-5.519-73.22-16.583-19.89-11.038-34.31-26.115-43.31-45.206-8.98-19.091-12.23-41.483-9.66-67.202 2.56-25.719 11.48-53.05 26.77-81.99 15.29-28.941 35.28-56.271 59.94-81.99 24.66-25.719 51.57-48.138 80.78-67.203 29.18-19.091 59.54-34.168 91.12-45.206 31.56-11.038 61.82-16.583 90.76-16.583h325.5Z"/><path fill="#fff" fill-rule="evenodd" d="M2769.17 135.039c16.87 0 31.16 3.221 42.83 9.638 11.67 6.416 20.1 15.157 25.32 26.221 5.21 11.038 7.05 24.109 5.5 39.186-1.54 15.078-6.79 31.054-15.72 47.927-7.86 14.866-17.93 29.125-30.18 42.803-12.25 13.652-25.72 25.825-40.37 36.466-14.68 10.642-30.05 19.593-46.13 26.828-16.08 7.236-31.9 12.253-47.45 15.079-.05 1.409.07 2.657.34 3.76l.26.928c.28 1.104.39 2.351.35 3.761l5.36 168.785h-141.67l-5.25-151.912c-.19-7.235-2.64-12.86-7.34-16.873-4.7-4.014-11.1-6.021-19.12-6.021h-128.99l-92.77 175.387h-141.66l223.18-421.963h413.51Zm-364.64 175.413h201.35c7.23 0 14.71-1.399 22.42-4.224a109.2 109.2 0 0 0 22.18-11.144c7.07-4.621 13.7-10.14 19.91-16.583 6.2-6.443 11.22-13.255 15.05-20.49 3.83-7.235 6.05-14.075 6.63-20.491.58-6.417-.22-11.963-2.38-16.583-2.17-4.621-5.63-8.344-10.38-11.143-4.6-2.737-10.35-4.136-17.28-4.221l-.67-.005h-201.35l-55.48 104.884Z" clip-rule="evenodd"/><path fill="#fff" d="M500.936 319.482h253.177l97.569-184.443h141.667L770.484 556.395H628.818l88.01-166.382H463.65l-88.009 166.382H233.974l222.864-421.356h141.666l-97.568 184.443ZM948.312 556.395H806.645l222.865-421.356h141.66L948.312 556.395ZM1831.05 306.228l343.72-171.189h141.67l-353.18 175.413h36.78l1.3.005c27.12.21 48.68 7.048 64.72 20.486 16.29 13.678 24.69 32.558 25.19 56.666l5.36 168.786h-141.06l-5.26-151.913c-.21-7.235-2.74-12.859-7.65-16.873-4.76-3.888-10.98-5.893-18.66-6.014l-.75-.006h-132l-39.88 75.336h-141.66l170.24-321.886h141.66l-90.54 171.189ZM2847.11 556.395h-141.67l222.87-421.356h141.66l-222.86 421.356Z"/><path fill="#fff" d="m2961.79 0-49.24 93.08H447.128L202.215 556.157H16.028L260.968 93.08H0L49.22 0h2912.57ZM3383.75.02c22.29 0 38.66 6.364 49.17 19.091 10.51 12.728 13.6 29.707 9.27 50.91l-63.77 320.644 274.62-320.644c18.11-21.203 39.29-38.182 63.53-50.91C3740.81 6.384 3764.05.02 3786.33.02H3990l-294.16 556.13h-186.98l223.47-422.491-303.85 354.866c-9.32 10.615-19.96 18.959-31.95 25.059-11.99 6.1-23.26 9.163-33.88 9.163h-109c-10.61 0-18.67-3.037-24.21-9.163-5.52-6.1-7.08-14.444-4.65-25.059l71.53-354.866-223.44 422.491H2885.9L3180.06.02h203.69ZM3092.16 93.08h-141.64L2999.74 0h141.67l-49.25 93.08Z"/></svg>