<svg width="2965" height="475" viewBox="0 0 2965 475" fill="none" xmlns="http://www.w3.org/2000/svg">
<path fill-rule="evenodd" clip-rule="evenodd" d="M66.527 16.7943C61.659 26.0083 52.421 43.4473 45.998 55.5473C39.576 67.6473 29.215 87.2223 22.974 99.0473C16.734 110.872 9.01203 125.46 5.81403 131.465C2.61603 137.469 0 142.757 0 143.215C0 143.672 41.584 144.047 92.41 144.047H184.82L179.077 154.797C175.919 160.709 170.726 170.497 167.537 176.547C164.348 182.597 157.57 195.422 152.475 205.047C147.379 214.672 128.941 249.547 111.501 282.547C94.061 315.547 73.826 353.797 66.533 367.547C59.241 381.297 48.176 402.222 41.946 414.047C35.715 425.872 26.204 443.84 20.809 453.976C15.414 464.112 11 472.549 11 472.726C11 472.902 88.287 473.034 182.75 473.017L354.5 472.987L364.5 453.82C370 443.278 380.488 423.379 387.807 409.6C395.125 395.821 404.575 377.913 408.807 369.804L416.5 355.061L462.25 355.054C494.684 355.049 508 355.365 508 356.14C508 356.741 502.096 368.329 494.881 381.89C487.665 395.451 477.476 414.647 472.238 424.547C467.001 434.447 459.18 449.186 454.858 457.301C450.536 465.416 447 472.278 447 472.551C447 472.824 517.763 473.039 604.25 473.029L761.5 473.01L770.303 456.463C775.144 447.363 782.777 432.909 787.265 424.344C794.026 411.441 795.602 409.072 796.462 410.519C811.434 435.709 828.702 451.559 852.591 462.036C864.599 467.302 881.949 471.717 895.792 473.03C902.614 473.677 976.961 474.046 1100.66 474.046L1294.82 474.047L1304.77 455.297C1310.24 444.985 1321.61 423.497 1330.05 407.547C1338.48 391.597 1348.86 372.022 1353.12 364.047L1360.87 349.547L1411.9 349.013L1412.41 352.28C1412.68 354.077 1413.61 378.272 1414.47 406.047C1415.33 433.822 1416.29 460.186 1416.59 464.633L1417.15 472.72L1490.74 473.383C1531.21 473.748 1595.73 474.047 1634.12 474.047H1703.9L1707.31 467.797C1709.19 464.36 1717.37 448.947 1725.5 433.547C1733.62 418.147 1744.2 398.122 1749 389.047C1753.8 379.972 1760.51 367.259 1763.93 360.797L1770.13 349.047H1818.88L1819.39 353.297C1819.67 355.634 1820.64 382.972 1821.53 414.047C1822.43 445.122 1823.34 471.11 1823.55 471.797C1823.86 472.792 1869.61 473.047 2047.95 473.047H2271.95L2273.36 470.797C2274.13 469.56 2279.73 459.097 2285.8 447.547C2318.01 386.277 2316.97 388.083 2317 393.047C2317.1 407.618 2323 421.243 2333.91 432.087C2342.32 440.443 2350.27 444.956 2361.05 447.498C2370.09 449.629 2462.08 449.737 2472.02 447.629C2486.15 444.635 2505.09 435.34 2516.25 425.933C2518.86 423.73 2521 422.243 2521 422.629C2521 423.015 2516.78 431.254 2511.61 440.939C2503.14 456.827 2496.08 470.297 2495.17 472.297C2494.99 472.709 2544.48 473.039 2605.17 473.03L2715.5 473.013L2722.9 458.78C2726.97 450.952 2735.79 434.197 2742.51 421.547C2749.22 408.897 2759.34 389.772 2765 379.047C2770.66 368.322 2781.01 348.747 2788.01 335.547C2795.01 322.347 2815.48 283.647 2833.5 249.547C2851.52 215.447 2871.99 176.747 2878.99 163.547C2885.99 150.347 2896.34 130.772 2902 120.047C2907.66 109.322 2918.01 89.7473 2925.01 76.5473C2932.01 63.3473 2942.13 44.2223 2947.5 34.0473C2952.86 23.8723 2959 12.3063 2961.13 8.34431C2963.26 4.38331 2965 0.895313 2965 0.594313C2965 -0.466687 2751.73 0.0123135 2742.97 1.09331C2708.78 5.31431 2675.53 21.5303 2646.74 48.0253C2643.02 51.4483 2616.08 82.1263 2586.87 116.198C2557.66 150.27 2533.66 178.013 2533.52 177.847C2533.38 177.682 2537.04 158.872 2541.66 136.047C2553.03 79.7203 2553.65 66.7053 2545.89 47.0743C2542.02 37.3103 2533.07 24.8853 2525.5 18.7913C2515.07 10.3923 2506.33 6.21132 2491 2.27932C2484.95 0.727318 2400.56 0.591315 1279.94 0.326315L75.378 0.0403121L66.527 16.7943ZM2490.87 17.3243C2511.65 23.0513 2526.59 36.6223 2533.32 55.8823C2536.06 63.7203 2536.35 65.6933 2536.3 76.5473C2536.28 83.9113 2535.61 91.4453 2534.59 96.0473C2530.76 113.255 2507.96 229.343 2508.34 229.717C2508.56 229.941 2540.86 192.652 2580.12 146.852C2655.3 59.1473 2660.27 53.8463 2679.38 41.0253C2690.59 33.4963 2707.48 25.1673 2719.63 21.1693C2737.9 15.1573 2740.16 15.0473 2844.88 15.0473C2897.19 15.0473 2940 15.4223 2940 15.8793C2940 16.3373 2937.38 21.6253 2934.17 27.6293C2930.96 33.6343 2925.51 43.9473 2922.04 50.5473C2918.57 57.1473 2912.03 69.5223 2907.51 78.0473C2895.5 100.677 2873.82 141.655 2862.01 164.047C2856.35 174.772 2847.91 190.747 2843.24 199.547C2833.92 217.121 2833.49 217.925 2806.49 269.047C2796.17 288.572 2782 315.347 2775.01 328.547C2768.01 341.747 2757.66 361.322 2752 372.047C2734.04 406.078 2714.89 442.266 2710.32 450.797L2705.9 459.047H2613.11C2562.08 459.047 2520.09 458.806 2519.8 458.51C2519.5 458.215 2528.24 441.003 2539.21 420.26C2550.18 399.518 2563.92 373.547 2569.74 362.547C2575.56 351.547 2583.41 336.75 2587.19 329.665C2590.98 322.579 2593.92 316.632 2593.74 316.449C2593.55 316.265 2575.71 336.792 2554.08 362.063C2528.9 391.489 2512.31 410.017 2507.95 413.589C2498.71 421.145 2487.93 427.127 2476.24 431.174L2466.5 434.547H2417C2371.1 434.547 2367.1 434.41 2362 432.66C2346.99 427.512 2337.17 417.472 2333.55 403.587C2330.84 393.184 2330.63 394.702 2343.96 328.66C2347.83 309.471 2350.99 293.496 2350.99 293.16C2350.97 292.545 2349.01 296.191 2329.04 334.047C2323.1 345.322 2309.77 370.522 2299.44 390.047C2289.1 409.572 2276.72 432.972 2271.93 442.047L2263.22 458.547L1838.27 459.052L1837.66 449.799C1837.33 444.711 1836.32 417.147 1835.42 388.547C1834.52 359.947 1833.62 335.985 1833.43 335.297C1833.14 334.327 1825.1 334.047 1797.55 334.047H1762.05L1760.27 336.714C1758.54 339.322 1751.54 352.501 1714 423.831L1695.5 458.984L1431.21 459.047L1430.59 444.797C1430.26 436.959 1429.29 409.397 1428.44 383.547C1427.6 357.697 1426.72 335.979 1426.48 335.285C1426.15 334.293 1418.1 334.079 1388.88 334.285L1351.7 334.547L1341.79 353.547C1330.38 375.429 1302.77 427.706 1292.95 446.047L1286.25 458.547H892.5L880.785 455.755C855.335 449.689 835.3 438.029 821.884 421.476C811.244 408.348 806.422 398.432 802.046 380.682L799.368 369.816L777.61 411C765.643 433.651 754.941 453.728 753.827 455.616L751.802 459.047H470.966L473.598 453.797C475.045 450.909 480.519 440.447 485.761 430.547C491.004 420.647 501.013 401.747 508.004 388.547C531.205 344.742 533 341.303 533 340.665C533 340.317 504.818 340.148 470.374 340.289L407.749 340.547L401.058 353.047C397.379 359.922 387.473 378.597 379.047 394.547C370.62 410.497 359.478 431.535 354.287 441.297L344.849 459.047H190.424C78.657 459.047 36 458.743 36 457.946C36 457.34 38.42 452.277 41.377 446.696C44.334 441.114 50.796 428.897 55.736 419.547C60.677 410.197 71.034 390.622 78.753 376.047C86.473 361.472 107.059 322.547 124.502 289.547C161.413 219.714 181 182.709 192.517 161.047C199.86 147.235 207.888 131.853 208.823 129.802C209.01 129.393 167.51 128.943 116.602 128.802L24.04 128.547L34.111 109.547C39.649 99.0973 50.728 78.1723 58.729 63.0473C66.73 47.9223 75.725 30.9333 78.718 25.2943L84.159 15.0413L1284.33 15.3053C2424.99 15.5563 2484.82 15.6563 2490.87 17.3243ZM97.674 41.2973C96.92 42.5343 90.993 53.6723 84.504 66.0473C78.014 78.4223 70.727 92.2603 68.309 96.7973L63.914 105.047H156.457C207.356 105.047 249 105.319 249 105.651C249 105.983 244.887 113.971 239.86 123.401C234.832 132.831 228.825 144.147 226.51 148.547C221.687 157.715 206.529 186.36 194.496 209.047C189.975 217.572 183.907 229.047 181.013 234.547C178.119 240.047 171.816 251.972 167.007 261.047C153.426 286.671 140.141 311.759 135.499 320.547C121.073 347.857 110.694 367.476 103.492 381.047C98.968 389.572 92.674 401.497 89.506 407.547C86.338 413.597 82.003 421.752 79.873 425.67C77.743 429.588 76 433.075 76 433.42C76 433.765 105.601 434.047 141.781 434.047H207.561L211.25 426.797C215.178 419.076 222.342 405.467 237.571 376.797C242.757 367.035 251.216 351.059 256.37 341.297C265.72 323.583 285.946 285.387 301.511 256.047C306.034 247.522 312.332 235.597 315.507 229.547C318.682 223.497 324.754 212.022 328.999 204.047C333.245 196.072 341.472 180.547 347.283 169.547C360.842 143.877 368.047 130.256 375.458 116.281L381.416 105.047H2134.72L2143.25 88.7973C2147.93 79.8603 2155.65 65.2113 2160.39 56.2453C2165.12 47.2783 2169 39.7413 2169 39.4953C2169 39.2483 1703.26 39.0473 1134.02 39.0473H99.046L97.674 41.2973ZM2187.72 56.7973C2182.53 66.5593 2175.46 79.9473 2172 86.5473C2168.55 93.1473 2164.85 100.01 2163.78 101.797L2161.84 105.047L2262.5 105.012L2271 88.7813C2275.68 79.8533 2283.46 65.0113 2288.29 55.7983L2297.08 39.0473H2197.15L2187.72 56.7973ZM2320.69 47.2973C2318.23 51.8343 2311.84 63.8723 2306.49 74.0473C2301.14 84.2223 2293.05 99.5223 2288.52 108.047C2283.99 116.572 2275.65 132.322 2269.99 143.047C2264.34 153.772 2253.75 173.797 2246.47 187.547C2213.05 250.633 2197.56 279.891 2188.77 296.547C2166.09 339.509 2160.69 349.729 2149.93 370.047C2143.67 381.872 2133.53 400.997 2127.4 412.547C2121.26 424.097 2116.44 433.884 2116.68 434.297C2116.92 434.71 2146.51 435.047 2182.44 435.047C2233.49 435.047 2247.98 434.774 2248.77 433.797C2249.88 432.416 2256.47 420.098 2289.51 357.547C2291.83 353.147 2297.78 341.897 2302.73 332.547C2307.67 323.197 2316.34 306.772 2322 296.047C2327.65 285.322 2337.77 266.197 2344.49 253.547C2351.21 240.897 2360.99 222.447 2366.22 212.547C2395.43 157.246 2406.29 137.007 2406.6 137.313C2406.79 137.501 2403.37 155.406 2399 177.101C2394.63 198.796 2383.16 255.67 2373.53 303.487C2363.89 351.305 2356 391.99 2356 393.9C2356 399.323 2360.18 405.466 2365.74 408.201C2370.47 410.533 2370.75 410.549 2412.42 410.848C2438.84 411.038 2456.95 410.752 2461.42 410.074C2469.72 408.815 2481.71 403.378 2490.42 396.93C2494.78 393.7 2524.61 359.528 2603.79 267.047C2662.89 198.022 2712.38 140.422 2713.75 139.047C2716.4 136.409 2712.76 143.681 2689.49 187.547C2682.78 200.197 2672.66 219.322 2667 230.047C2661.34 240.772 2650.87 260.572 2643.74 274.047C2636.6 287.522 2626.59 306.422 2621.5 316.047C2616.41 325.672 2606.4 344.572 2599.26 358.047C2592.12 371.522 2581.43 391.772 2575.51 403.047C2569.58 414.322 2563.47 425.859 2561.92 428.685C2560.38 431.511 2559.39 434.098 2559.72 434.435C2560.06 434.772 2589.68 435.047 2625.54 435.047C2676.51 435.047 2690.98 434.774 2691.77 433.797C2693.04 432.217 2701.15 416.983 2768.5 289.547C2785.94 256.547 2804.5 221.447 2809.74 211.547C2814.98 201.647 2821.4 189.497 2824.01 184.547C2826.62 179.597 2832.57 168.347 2837.24 159.547C2841.9 150.747 2850.12 135.222 2855.5 125.047C2860.87 114.872 2866.95 103.397 2869 99.5473C2871.04 95.6973 2876.89 84.6723 2881.98 75.0473C2887.07 65.4223 2893.46 53.3673 2896.18 48.2573L2901.11 38.9683L2741.5 39.6193L2732 42.3783C2711.32 48.3843 2689.65 61.0093 2672.62 76.9753C2669.94 79.4903 2630.15 125.422 2584.2 179.047C2473.76 307.929 2466.72 316.102 2466.44 315.803C2466.32 315.662 2468.83 302.497 2472.04 286.547C2516.29 66.6043 2514.97 74.4013 2510.08 61.7853C2505.9 50.9953 2495.64 43.0433 2482.2 40.1773C2478.53 39.3933 2453.65 39.0473 2401.03 39.0473H2325.16L2320.69 47.2973ZM509.07 148.797C503.334 159.66 495.413 174.622 491.47 182.047C473.497 215.886 460.472 240.519 460.167 241.249C459.983 241.688 488.108 242.041 522.667 242.033L585.5 242.019L597 220.314C615.86 184.718 628.131 161.48 636.876 144.797L645.132 129.047H519.5L509.07 148.797ZM925.64 131.297C924.533 133.068 914.179 152.688 900.718 178.522C899.516 180.828 898.254 181.641 914.271 169.8C930.552 157.765 943.789 149.806 965.499 139.001L985.497 129.047H956.272C927.047 129.047 927.046 129.047 925.64 131.297ZM1456.83 135.797C1434.59 177.646 1422.88 200.264 1423.28 200.656C1423.68 201.062 1565.7 130.68 1566.9 129.478C1567.14 129.241 1543.28 129.047 1513.88 129.047H1460.42L1456.83 135.797ZM379.066 152.797C362.622 183.886 353.633 200.872 339.246 228.047C331.53 242.622 310.942 281.547 293.496 314.547C276.05 347.547 255.04 387.235 246.809 402.742C238.577 418.249 231.6 431.861 231.304 432.992C230.767 435.045 230.814 435.047 280.408 435.047H330.049L332.572 430.797C333.96 428.46 340.536 416.197 347.186 403.547C370.631 358.947 388.939 324.499 391.431 320.297L393.951 316.047H482.916C531.847 316.047 572.095 316.392 572.355 316.813C572.616 317.234 567.551 327.472 561.1 339.563C554.649 351.654 544.033 371.672 537.508 384.047C530.983 396.422 522.392 412.62 518.416 420.043C514.44 427.466 511.396 433.879 511.652 434.293C511.908 434.708 534.356 435.047 561.536 435.047H610.954L612.368 432.797C613.145 431.56 622.438 414.122 633.019 394.047C643.599 373.972 656.307 349.897 661.259 340.547C666.211 331.197 672.165 319.947 674.49 315.547C684.497 296.604 698.899 269.385 706.764 254.547C711.429 245.747 717.38 234.497 719.987 229.547C722.595 224.597 728.895 212.672 733.987 203.047C739.079 193.422 747.523 177.447 752.752 167.547C757.981 157.647 763.776 146.719 765.63 143.263C767.483 139.806 769 136.544 769 136.013C769 135.405 750.483 135.047 719.014 135.047H669.029L665.89 141.297C664.163 144.735 657.703 156.997 651.534 168.547C645.364 180.097 635.457 198.772 629.518 210.047C623.579 221.322 614.474 238.535 609.284 248.297L599.849 266.047H419.891L425.326 255.797C428.316 250.16 435.155 237.222 440.526 227.047C445.896 216.872 455.78 198.197 462.49 185.547C469.199 172.897 477.939 156.36 481.911 148.797L489.133 135.047H388.455L379.066 152.797ZM777.754 168.823C755.719 210.699 741.642 237.353 724.558 269.547C717.261 283.297 706.66 303.322 701 314.047C695.34 324.772 684.749 344.797 677.465 358.547C670.181 372.297 658.322 394.694 651.111 408.318C643.9 421.943 638 433.53 638 434.068C638 434.693 656.059 435.047 687.986 435.047H737.971L741.112 428.797C742.84 425.36 749.758 412.197 756.485 399.547C763.212 386.897 773.345 367.772 779.002 357.047C784.658 346.322 795.126 326.522 802.263 313.047C809.4 299.572 819.406 280.672 824.5 271.047C829.594 261.422 839.602 242.522 846.741 229.047C853.88 215.572 864.58 195.322 870.518 184.047C876.456 172.772 884.619 157.363 888.657 149.806C892.696 142.248 896 135.836 896 135.556C896 135.276 873.388 135.058 845.75 135.073L795.5 135.098L777.754 168.823ZM1053 136.155C1009.44 141.085 958.303 164.531 915 199.424C903.461 208.722 880.729 231.35 870.934 243.288C844.125 275.961 827.286 311.617 823.922 342.835C819.318 385.557 838.001 416.541 876.277 429.66C892.344 435.167 887.141 435.035 1087.16 435.041L1271.83 435.047L1279.78 419.797C1284.16 411.41 1290.09 400.16 1292.96 394.797L1298.18 385.047L1140.34 385.012C966.142 384.974 973.218 385.222 959.393 378.656C940.539 369.703 930.9 353.583 930.92 331.042C930.972 274.056 999.08 204.638 1071.5 187.757C1080.26 185.716 1083.15 185.65 1179.11 185.308L1277.72 184.957L1278.93 182.252C1279.59 180.764 1285.28 169.82 1291.57 157.932C1297.85 146.043 1303 136.031 1303 135.682C1303 134.722 1061.63 135.179 1053 136.155ZM1324.45 144.297C1321.84 149.385 1316.69 159.172 1313.01 166.047C1309.33 172.922 1303.72 183.497 1300.53 189.547C1294 201.956 1284.29 220.306 1258.21 269.547C1215.9 349.458 1209 362.605 1209 363.381C1209 363.747 1231.47 364.047 1258.93 364.047H1308.86L1319.11 344.797C1324.74 334.21 1331.2 322.172 1333.46 318.047L1337.57 310.547L1384 310.287C1432.34 310.016 1438.93 310.435 1444.08 314.104C1450.16 318.436 1450.05 317.515 1452.16 377.458C1453.23 407.757 1454.3 433.11 1454.52 433.797C1454.85 434.775 1465.73 435.047 1504.47 435.047H1554V425.315C1554 412.407 1551.21 321.633 1550.52 311.94C1548.76 287.359 1535.9 271.44 1511.17 263.24C1504.19 260.925 1501.64 260.659 1482.75 260.271C1471.34 260.037 1462 259.534 1462 259.153C1462 258.772 1470.89 254.118 1481.75 248.81C1492.61 243.501 1548.3 215.846 1605.5 187.353L1709.5 135.547L1610.31 135.029L1488.59 195.64C1421.64 228.977 1366.74 256.093 1366.57 255.899C1366.41 255.706 1368.82 250.822 1371.93 245.047C1375.05 239.272 1383.15 223.972 1389.95 211.047C1396.74 198.122 1407.58 177.647 1414.02 165.547C1420.47 153.447 1426.71 141.635 1427.89 139.297L1430.04 135.047H1329.2L1324.45 144.297ZM1738.29 136.276C1737.75 136.975 1734.47 142.947 1731.01 149.547C1722.76 165.282 1708.74 191.822 1692.99 221.547C1685.99 234.747 1671.6 261.972 1661 282.047C1650.41 302.122 1638.03 325.522 1633.49 334.047C1624.7 350.555 1612.66 373.368 1596.02 405.047C1590.38 415.772 1584.44 426.91 1582.81 429.797L1579.85 435.047H1680.87L1688.09 421.297C1692.06 413.735 1700.57 397.647 1707 385.547C1713.43 373.447 1724 353.422 1730.48 341.047C1736.97 328.672 1743.36 316.634 1744.68 314.297L1747.08 310.047H1792.99C1840.85 310.047 1846.73 310.472 1851.58 314.289C1856.85 318.432 1857.1 320.279 1858.59 366.008C1859.36 389.404 1860.26 414.509 1860.6 421.797L1861.21 435.047H1911.04C1938.45 435.047 1961.09 434.708 1961.35 434.293C1961.72 433.693 1959.1 345.884 1957.82 315.696L1957.52 308.844L1966.95 306.403C2001.16 297.541 2036.46 273.943 2059.48 244.547C2085.74 211.017 2092.87 174.751 2077.24 154.273C2071.43 146.662 2065.62 142.606 2054.12 138.126L2047.5 135.547L1893.39 135.276C1769.65 135.058 1739.08 135.255 1738.29 136.276ZM2141.68 143.297C2139.25 147.834 2131.08 163.247 2123.51 177.547C2108.25 206.413 2097.57 226.596 2078.26 263.047C2071.13 276.522 2060.66 296.322 2055 307.047C2049.34 317.772 2038.99 337.347 2032 350.547C2025.01 363.747 2015.02 382.647 2009.79 392.547C2004.56 402.447 1997.52 415.778 1994.14 422.171C1990.76 428.564 1988 434.077 1988 434.421C1988 434.765 2010.48 435.047 2037.95 435.047H2087.9L2091.31 428.797C2093.19 425.36 2101.26 410.172 2109.25 395.047C2154.57 309.242 2170.15 279.768 2178.48 264.047C2203.45 216.959 2226.92 172.578 2239.36 148.939C2243.01 142.005 2246 136.042 2246 135.689C2246 135.336 2223.52 135.047 2196.05 135.047H2146.1L2141.68 143.297ZM620 144.675C620 145.02 610.256 163.695 598.347 186.175L576.694 227.047H530.847C505.631 227.047 485 226.8 485 226.498C485 225.959 503.566 190.384 508.982 180.547C511.833 175.367 522.124 155.739 525.89 148.297L528.041 144.047H574.02C599.309 144.047 620 144.33 620 144.675ZM1481 155.994C1468.07 162.506 1457.37 167.719 1457.22 167.578C1457.07 167.438 1459.69 162.086 1463.06 155.685L1469.17 144.047L1504.5 144.154L1481 155.994ZM1629.31 202.347C1595.87 219.013 1561.65 236 1553.27 240.097C1544.89 244.195 1538.03 247.825 1538.02 248.164C1538.01 248.504 1539.91 250.047 1542.25 251.593C1552.65 258.478 1562.54 270.247 1567.69 281.872C1573.39 294.737 1573.99 299.533 1575.55 344.047C1576.35 366.872 1577.13 386.222 1577.28 387.047C1577.44 387.872 1580.88 382.247 1584.95 374.547C1589.01 366.847 1599.85 346.372 1609.03 329.047C1625.9 297.232 1636.69 276.819 1654.49 243.047C1659.85 232.872 1667.71 218.022 1671.96 210.047C1689.14 177.8 1692.04 172.047 1691.1 172.047C1690.56 172.047 1662.76 185.682 1629.31 202.347ZM1962.98 186.128C1977.65 189.509 1982.11 204.642 1973.46 221.686C1964.63 239.085 1943.01 255.562 1924.57 258.955C1918.19 260.128 1774 260.574 1774 259.421C1774 259.076 1776.19 254.689 1778.87 249.671C1781.54 244.653 1790.36 228.059 1798.46 212.797L1813.18 185.047L1885.84 185.071C1932.14 185.087 1960.12 185.47 1962.98 186.128ZM1649.68 220.65C1634.9 248.425 1616.02 284.084 1603.4 308.047L1590.5 332.547L1589.77 319.047C1588.18 289.679 1582.45 272.403 1568.78 255.849L1564.9 251.15L1567.7 249.703C1592.2 237.038 1656.57 205.471 1656.78 206.019C1656.94 206.423 1653.74 213.007 1649.68 220.65ZM1085.5 209.754C1039.07 216.055 984.602 256.103 963.446 299.495C960.483 305.574 957.37 313.229 956.529 316.507C954.366 324.94 954.542 339.446 956.869 344.547C959.426 350.151 965.507 355.689 971.989 358.315L977.5 360.547L1182.5 361.075L1184.61 357.311C1185.77 355.241 1195.39 337.122 1205.99 317.047C1216.58 296.972 1229.31 272.897 1234.26 263.547C1239.21 254.197 1245.16 242.947 1247.49 238.547C1249.81 234.147 1254.29 225.71 1257.43 219.797L1263.16 209.047L1175.83 209.197C1127.8 209.279 1087.15 209.53 1085.5 209.754ZM1820.73 221.902C1817.03 228.973 1814 235.048 1814 235.402C1814 235.757 1837.56 236.047 1866.34 236.047C1916.25 236.047 1918.96 235.953 1924.59 234.026C1934.7 230.57 1947.17 220.423 1951.42 212.204L1953.05 209.047H1827.46L1820.73 221.902ZM1238 224.562C1238 224.845 1236.71 227.433 1235.13 230.312C1233.56 233.191 1227.42 244.772 1221.49 256.047C1212.14 273.857 1200.65 295.577 1179.31 335.816L1173.87 346.085L1076.69 345.816C985.514 345.564 979.277 345.436 975.895 343.752C971.003 341.316 969.484 338.042 969.578 330.134C969.763 314.451 980.974 293.493 999.5 274.195C1019.55 253.307 1038.99 240.151 1064.2 230.418C1080.07 224.286 1080.87 224.236 1163.25 224.137C1204.36 224.087 1238 224.279 1238 224.562ZM2024.87 307.077C2020.53 310.313 1999.87 320.569 1990.73 324.017L1982.21 327.235L1982.6 332.891C1982.81 336.002 1983.26 349.723 1983.61 363.382C1983.95 377.041 1984.6 387.841 1985.05 387.382C1985.85 386.579 1988.66 381.303 2012.45 336.047C2018.38 324.772 2024.56 313.184 2026.19 310.297C2029.35 304.68 2029.05 303.95 2024.87 307.077Z" fill="#D31212"/>
</svg>
