<svg xmlns="http://www.w3.org/2000/svg" width="245" height="46" fill="none"><path fill="#fff" fill-rule="evenodd" d="M16.024 5.715.984 34.15h11.433L27.455 5.715H178.84L181.864 0H3.022L0 5.715h16.024Z" clip-rule="evenodd"/><path fill="#fff" d="M174.823 34.164h-8.699l13.685-25.871h8.699l-13.685 25.871Z"/><path fill="#fff" fill-rule="evenodd" d="M139.639 34.202h-8.698l13.704-25.91h25.391c1.036 0 1.913.199 2.63.593.716.394 1.234.93 1.555 1.61.319.677.433 1.48.337 2.406-.094.925-.417 1.906-.965 2.942a13.206 13.206 0 0 1-1.853 2.629 15.783 15.783 0 0 1-2.479 2.239 16.016 16.016 0 0 1-2.833 1.647c-.987.444-1.958.752-2.913.926a.771.771 0 0 0 .029.26c.022.074.032.16.029.259l.329 10.363h-8.699l-.322-9.327c-.012-.445-.163-.79-.451-1.036-.289-.247-.681-.37-1.174-.37h-7.921l-5.696 10.769Zm20.37-15.139h-12.363l3.407-6.44h12.363c.444 0 .81.086 1.102.26.292.172.504.4.637.684.133.284.182.624.146 1.018-.035.394-.171.814-.407 1.258a5.57 5.57 0 0 1-.924 1.259 7.06 7.06 0 0 1-1.222 1.018c-.435.284-.889.51-1.362.684-.474.174-.933.26-1.377.26ZM109.987 23.431h8.105c.493 0 .89.123 1.192.37.301.246.457.592.47 1.036l.323 9.327h8.661l-.329-10.363c-.031-1.48-.546-2.64-1.547-3.48-1-.838-2.351-1.258-4.053-1.258h-2.259l21.686-10.77h-8.699l-21.105 10.511 5.559-10.511h-8.698L98.839 28.057h8.699l2.449-4.626Z" clip-rule="evenodd"/><path fill="#fff" d="M68.89 33.184c1.22.679 2.718 1.018 4.495 1.018l15.463-.002 15.462-.001 2.291-4.331H80.006c-1.184 0-2.175-.229-2.97-.684-.794-.456-1.374-1.074-1.74-1.85-.367-.777-.502-1.69-.403-2.739.098-1.049.46-2.164 1.087-3.35.626-1.184 1.444-2.3 2.456-3.349a19.134 19.134 0 0 1 3.3-2.738 17.586 17.586 0 0 1 3.7-1.85c1.277-.456 2.51-.685 3.693-.685h15.656l2.291-4.33H87.09c-1.778 0-3.636.34-5.573 1.018a25.659 25.659 0 0 0-5.596 2.776 28.266 28.266 0 0 0-4.96 4.126c-1.514 1.58-2.741 3.257-3.68 5.034-.939 1.777-1.487 3.455-1.644 5.035-.157 1.579.042 2.954.593 4.126.553 1.172 1.438 2.098 2.66 2.776ZM58.229 34.164H49.53L63.215 8.293h8.698L58.23 34.164ZM14.368 34.164h8.699l5.404-10.216h15.546l-5.404 10.216h8.699l6.842-12.935 6.842-12.936h-8.699l-5.99 11.325H30.76l5.991-11.325h-8.698L21.21 21.229l-6.842 12.935Z"/><path fill="#fff" fill-rule="evenodd" d="m184.194 0-3.022 5.715h8.697L192.893 0h-8.699ZM188.686 34.149h-11.482L195.267.002h12.507c1.369 0 2.374.39 3.019 1.172.646.782.835 1.824.569 3.126l-3.915 19.688L224.309 4.3a13.122 13.122 0 0 1 3.901-3.126c1.489-.781 2.916-1.172 4.284-1.172H245L226.938 34.15h-11.481l13.721-25.941-18.657 21.789a6.547 6.547 0 0 1-1.962 1.538c-.736.375-1.428.563-2.08.563h-6.693c-.652 0-1.147-.186-1.487-.563-.339-.374-.435-.886-.286-1.538l4.393-21.79-13.72 25.942Z" clip-rule="evenodd"/><path fill="#fff" d="m225.358 45.895-3.49-3.789v3.79h-1.581v-5.85h1.667l3.42 3.766v-3.765h1.572v5.848h-1.588ZM214.156 45.983h-.126c-2.578 0-3.388-1.612-3.388-2.924v-.213c0-1.242.755-2.877 3.42-2.877h.267c2.547 0 3.357 1.116 3.357 2.075v.016h-1.675c-.055-.15-.298-.77-1.808-.77-1.439 0-1.879.81-1.879 1.596v.102c0 .762.495 1.674 1.934 1.674 1.384 0 1.69-.739 1.714-.912h-1.588v-1.045h3.373v3.191h-1.29a3.574 3.574 0 0 0-.196-.81c-.134.166-.731.897-2.115.897ZM208.278 40.047v5.848h-1.619v-5.848h1.619ZM201.259 46h-.228c-2.744 0-3.058-1.241-3.058-1.94v-.087h1.761c.024.26.134.84 1.376.84h.055c1.218 0 1.375-.369 1.375-.699 0-.346-.227-.574-1.194-.605l-.779-.024c-1.918-.055-2.531-.825-2.531-1.706v-.07c0-.904.487-1.73 2.909-1.73h.267c2.586 0 2.94.944 2.94 1.714v.087h-1.737c-.04-.26-.189-.645-1.313-.645h-.079c-1.037 0-1.281.196-1.281.519 0 .298.212.518 1.132.558l.81.031c2.083.079 2.586.763 2.586 1.714v.094c0 .857-.393 1.95-3.011 1.95ZM190.336 40.047h5.353v1.273h-3.757v.951h3.639v1.321h-3.639v1.014h3.805v1.29h-5.401v-5.85ZM181.24 45.895v-5.848h2.996c3.05 0 3.75 1.533 3.75 2.72v.235c0 1.227-.535 2.893-3.743 2.893h-3.003Zm1.62-4.551v3.246h1.305c1.965 0 2.138-.959 2.138-1.619v-.047c0-.653-.188-1.58-2.138-1.58h-1.305ZM173.537 43.028c0-.236.037-.425.11-.566a.702.702 0 0 1 .314-.315 1.06 1.06 0 0 1 .449-.094c.162 0 .309.031.44.094a.697.697 0 0 1 .314.315c.079.141.118.33.118.566 0 .23-.039.419-.118.566a.754.754 0 0 1-.314.314 1.005 1.005 0 0 1-.44.094 1.06 1.06 0 0 1-.449-.094.76.76 0 0 1-.314-.315 1.27 1.27 0 0 1-.11-.566ZM161.239 45.896v-5.849h4.268c1.675 0 2.092.732 2.092 1.384v.087c0 .73-.637 1.1-1.077 1.155.66.094 1.367.511 1.367 1.447v.086c0 .794-.479 1.69-2.358 1.69h-4.292Zm4.033-4.63h-2.414v1.046h2.414c.487 0 .636-.236.636-.511v-.016c0-.283-.157-.519-.636-.519Zm.125 2.193h-2.539v1.156h2.539c.574 0 .731-.29.731-.59v-.031c0-.291-.157-.535-.731-.535ZM153.364 40.047h5.354v1.274h-3.758v.951h3.64v1.321h-3.64v1.014h3.805v1.29h-5.401v-5.85ZM144.962 45.896h-1.879l-2.013-5.848h1.738l1.289 4.205 1.226-4.205h1.887l1.234 4.221 1.282-4.221h1.596l-1.942 5.848h-1.934l-1.242-4.095-1.242 4.095ZM133.948 43.028c0-.236.036-.425.11-.566a.697.697 0 0 1 .314-.315c.136-.063.286-.094.448-.094.163 0 .309.031.441.094a.702.702 0 0 1 .314.315c.079.141.118.33.118.566 0 .23-.039.419-.118.566a.76.76 0 0 1-.314.314 1.009 1.009 0 0 1-.441.094c-.162 0-.312-.031-.448-.094a.754.754 0 0 1-.314-.315 1.257 1.257 0 0 1-.11-.566ZM124.481 45.984h-.125c-2.579 0-3.389-1.612-3.389-2.925v-.212c0-1.242.755-2.877 3.42-2.877h.267c2.547 0 3.357 1.116 3.357 2.075v.016h-1.674c-.055-.15-.299-.77-1.808-.77-1.439 0-1.879.81-1.879 1.595v.102c0 .763.495 1.675 1.934 1.675 1.383 0 1.69-.739 1.713-.912h-1.588v-1.045h3.373v3.191h-1.289a3.576 3.576 0 0 0-.197-.81c-.134.165-.731.897-2.115.897ZM117.011 45.896l-3.49-3.789v3.79h-1.581v-5.85h1.667l3.42 3.766v-3.766h1.572v5.85h-1.588ZM109.318 40.047v5.85h-1.619v-5.85h1.619ZM101.559 45.896v-4.512h-2.264v-1.337h6.14v1.337h-2.264v4.512h-1.612ZM91.821 40.047h5.354v1.274h-3.758v.951h3.64v1.32h-3.64v1.015h3.805v1.29H91.82v-5.85ZM85.007 45.896h-1.62v-5.849h1.62v2.406l2.736-2.406h2.06l-3.082 2.681 3.215 3.168h-2.115l-2.814-2.751v2.751ZM76.112 41.337v1.242h2.256c.66 0 .841-.283.841-.621v-.016c0-.33-.18-.605-.841-.605h-2.256Zm3.56 1.745c.795.18 1.274.66 1.274 1.517v.605c0 .44.048.559.095.653v.04h-1.675c-.023-.04-.055-.15-.055-.41v-.48c0-.754-.275-1.1-1.093-1.1h-2.106v1.99h-1.62v-5.85h3.939c2.225 0 2.476.928 2.476 1.565v.078c0 .732-.503 1.227-1.234 1.392ZM69.746 43.609l-1.061-2.382-1.03 2.382h2.091Zm1.022 2.287-.48-1.085h-3.16l-.471 1.085h-1.628l2.595-5.849h2.17l2.712 5.85h-1.738ZM55.083 45.896v-5.849h2.154l1.864 3.963 1.918-3.962h2.02v5.848h-1.58v-3.828l-1.777 3.828h-1.265l-1.777-3.828v3.828h-1.557ZM44.148 40.047h1.62v4.474h3.577v1.375h-5.197v-5.849ZM39.403 43.609l-1.061-2.382-1.03 2.382h2.091Zm1.022 2.287-.48-1.085h-3.16l-.471 1.085h-1.628l2.595-5.849h2.17l2.712 5.85h-1.738ZM29.85 45.896v-4.512h-2.264v-1.337h6.14v1.337h-2.264v4.512H29.85ZM25.325 40.047v5.85h-1.62v-5.85h1.62ZM17.574 45.984h-.126c-2.579 0-3.388-1.612-3.388-2.925v-.212c0-1.242.754-2.877 3.42-2.877h.267c2.547 0 3.357 1.116 3.357 2.075v.016h-1.675c-.055-.15-.299-.77-1.808-.77-1.439 0-1.88.81-1.88 1.595v.102c0 .763.496 1.675 1.935 1.675 1.384 0 1.69-.739 1.714-.912h-1.588v-1.045h3.372v3.191h-1.29a3.58 3.58 0 0 0-.196-.81c-.133.165-.73.897-2.114.897ZM11.696 40.047v5.85h-1.62v-5.85h1.62ZM.982 45.896v-5.849h2.995c3.05 0 3.75 1.533 3.75 2.72v.236c0 1.227-.534 2.893-3.742 2.893H.982Zm1.62-4.551v3.246h1.305c1.965 0 2.138-.959 2.138-1.62v-.046c0-.653-.189-1.58-2.138-1.58H2.602Z"/></svg>