<svg width="240" height="50" viewBox="0 0 240 50" fill="none" xmlns="http://www.w3.org/2000/svg">
<path fill-rule="evenodd" clip-rule="evenodd" d="M204.47 14.4337L212.454 5.11125C213.741 3.60955 215.271 2.37454 217.021 1.45473C218.716 0.565223 220.555 0 222.48 0H239.361L219.17 38.1715H201.363L203.605 33.9346C202.983 34.5104 202.289 35.0014 201.529 35.3878C200.48 35.9212 199.346 36.2531 198.165 36.2531H191.909C190.492 36.2531 189.165 35.7621 188.203 34.6999C187.319 33.724 186.975 32.495 187.081 31.2479L183.42 38.17H170.475L170.467 38.1852H147.225L146.878 28.1536H142.908L137.583 38.22H122.375L122.393 38.1852H114.396L114.049 28.1536H109.89L104.565 38.22H73.7775C71.7879 38.22 69.8088 37.8487 68.0556 36.8744C66.4024 35.9546 65.0976 34.6317 64.2809 32.9208L61.4957 38.1852H36.0849L41.1355 28.637H33.6831L28.6324 38.1852H13.4335L13.4411 38.17H0.921321L14.9761 11.5969H-7.62939e-06L6.1341 0H199.375C201.391 0 203.297 0.64099 204.609 2.2321C205.916 3.81412 206.188 5.7871 205.796 7.75553L204.47 14.4337ZM42.6978 11.5969L39.1337 18.3341H46.5862L50.1503 11.5969H42.6978ZM118.629 11.5969L117.588 13.5654L121.54 11.5969H118.629ZM94.7908 27.9172L100.008 18.0523H88.4915C87.6732 18.0523 86.8595 18.2356 86.0912 18.5099C85.1047 18.8615 84.1698 19.3388 83.2939 19.9116C82.368 20.5178 81.5179 21.2285 80.7496 22.0255C80.0511 22.7499 79.4373 23.5575 78.9676 24.447C78.6554 25.038 78.3645 25.7366 78.3008 26.4079C78.2751 26.6897 78.269 27.0807 78.3918 27.3429C78.469 27.5065 78.5918 27.6035 78.7479 27.6929C79.0721 27.8793 79.5995 27.9172 79.9647 27.9172H94.7908ZM128.381 26.8686L133.875 16.4824L126.319 20.2344C127.637 21.5952 128.291 23.3545 128.33 25.2714L128.381 26.8686Z" fill="white"/>
<path fill-rule="evenodd" clip-rule="evenodd" d="M117.588 13.5654L118.629 11.5969H121.54L117.588 13.5654Z" fill="white"/>
<path fill-rule="evenodd" clip-rule="evenodd" d="M176.174 1.19107H199.377C201.032 1.19107 202.611 1.68053 203.692 2.9913C204.765 4.29146 204.952 5.90985 204.63 7.52369L202.414 18.6675L213.36 5.88712C214.55 4.49907 215.958 3.36104 217.576 2.51093C219.097 1.71235 220.751 1.19259 222.48 1.19259H237.383L218.453 36.9805H203.342L209.533 25.2775L203.397 32.442C202.715 33.2179 201.909 33.8589 200.988 34.3271C200.109 34.7741 199.157 35.0636 198.165 35.0636H191.909C190.83 35.0636 189.82 34.712 189.085 33.9013C188.289 33.0239 188.109 31.8874 188.359 30.76L189.818 23.5242L182.7 36.9805H169.752L169.744 36.9956H148.373L148.026 26.964H142.186L136.861 37.0305H124.352L124.37 36.9956H115.543L115.196 26.964H109.15L108.015 29.1113H108.033L103.845 37.0305H73.776C71.9909 37.0305 70.2074 36.7092 68.6329 35.8349C67.1843 35.0287 66.0463 33.8786 65.3371 32.3738C64.9416 31.5343 64.7112 30.6509 64.6097 29.7477L60.7759 36.9956H38.0609L43.1115 27.4474H32.9633L27.9126 36.9956H15.4035L15.411 36.9805H2.89885L16.9537 10.4059H1.97752L6.85238 1.19107H176.174ZM41.9796 10.4059L37.1547 19.5267H47.303L52.1278 10.4059H41.9796ZM74.8428 10.4059L72.6107 14.6261C73.4017 13.9745 74.2291 13.3653 75.0898 12.8031C76.5355 11.8576 78.0645 11.0499 79.6631 10.4059H74.8428ZM117.91 10.4059L114.801 16.2839L126.604 10.4059H117.91ZM95.5076 29.1082L101.986 16.8612H88.4915C87.5353 16.8612 86.5898 17.0673 85.6912 17.3886C84.6153 17.7735 83.597 18.2902 82.6423 18.9145C81.6407 19.5692 80.7224 20.3374 79.8919 21.1982C79.1146 22.0043 78.4372 22.8999 77.9144 23.8894C77.525 24.6243 77.1931 25.4608 77.1143 26.2958C77.0658 26.811 77.0901 27.3747 77.3144 27.8505C77.4977 28.24 77.7826 28.5127 78.1554 28.7264C78.6842 29.0295 79.3676 29.1098 79.9662 29.1098H95.5091L95.5076 29.1082ZM127.333 31.3994L136.657 13.7715L124.102 20.0071C124.416 20.1889 124.716 20.3981 125.002 20.639C126.43 21.8376 127.099 23.4848 127.139 25.3123L127.333 31.401V31.3994ZM160.196 31.3979L163.831 24.5259C163.098 25.0062 162.33 25.429 161.53 25.7881C161.042 26.0079 160.545 26.2018 160.035 26.367L160.196 31.3979ZM146.397 19.0085H154.736C154.948 19.0085 155.162 18.9554 155.361 18.8827C155.67 18.7706 155.962 18.6206 156.236 18.4417C156.532 18.2478 156.802 18.019 157.047 17.7659C157.261 17.5462 157.449 17.3007 157.593 17.0294C157.618 16.981 157.647 16.9234 157.673 16.8612H147.532L146.397 19.0085Z" fill="black"/>
<path fill-rule="evenodd" clip-rule="evenodd" d="M181.537 35.0438H170.807L187.687 3.12918H199.377C200.656 3.12918 201.595 3.49438 202.198 4.22477C202.801 4.95517 202.979 5.92954 202.73 7.14636L199.071 25.5472L214.83 7.14636C215.87 5.92954 217.085 4.95517 218.476 4.22477C219.867 3.49438 221.201 3.12918 222.48 3.12918H234.168L217.287 35.0438H206.557L219.381 10.7983L201.944 31.163C201.409 31.7722 200.798 32.2511 200.11 32.6011C199.422 32.9511 198.775 33.1269 198.166 33.1269H191.911C191.302 33.1269 190.839 32.9527 190.521 32.6011C190.204 32.2511 190.115 31.7722 190.254 31.163L194.36 10.7983L181.535 35.0438H181.537ZM160.451 35.0575H168.58L181.37 10.8771H173.24L160.451 35.0575ZM135.699 35.0923H127.569L140.377 10.8771H164.107C165.075 10.8771 165.895 11.062 166.565 11.4302C167.235 11.7985 167.718 12.3 168.018 12.935C168.317 13.5684 168.423 14.3185 168.333 15.1837C168.246 16.049 167.944 16.9658 167.432 17.9341C166.98 18.7872 166.403 19.6055 165.7 20.3905C164.997 21.1739 164.224 21.8725 163.383 22.4832C162.54 23.0938 161.658 23.6075 160.736 24.0227C159.813 24.4379 158.905 24.7259 158.012 24.888C158.009 24.9804 158.019 25.0608 158.04 25.1305C158.061 25.2002 158.07 25.2805 158.067 25.3729L158.375 35.059H150.245L149.943 26.3412C149.933 25.926 149.792 25.6032 149.522 25.3729C149.252 25.1426 148.886 25.0274 148.425 25.0274H141.022L135.698 35.0938L135.699 35.0923ZM143.182 20.9436H154.736C155.152 20.9436 155.58 20.8632 156.023 20.7011C156.465 20.539 156.89 20.3268 157.296 20.0616C157.702 19.7964 158.082 19.4797 158.438 19.11C158.794 18.7403 159.082 18.3493 159.302 17.9341C159.522 17.5189 159.649 17.1264 159.682 16.7582C159.716 16.39 159.67 16.0717 159.546 15.8065C159.422 15.5414 159.223 15.3277 158.95 15.1671C158.678 15.0049 158.335 14.9246 157.92 14.9246H146.366L143.182 20.9436ZM107.986 25.0259H115.562C116.022 25.0259 116.394 25.1411 116.675 25.3714C116.957 25.6017 117.103 25.9245 117.115 26.3397L117.416 35.0575H125.511L125.204 25.3714C125.175 23.9879 124.693 22.9044 123.758 22.1195C122.823 21.336 121.561 20.9436 119.97 20.9436H117.859L138.127 10.8771H129.997L110.272 20.7011L115.468 10.8771H107.338L97.5684 29.3492H105.698L107.985 25.0259H107.986ZM73.7775 35.0923C72.1167 35.0923 70.7165 34.7756 69.5755 34.1407C68.4344 33.5073 67.6071 32.642 67.0903 31.5464C66.5751 30.4508 66.3887 29.1658 66.5357 27.6899C66.6827 26.2139 67.1949 24.6455 68.0723 22.9847C68.9497 21.3239 70.0968 19.7555 71.5121 18.2796C72.9274 16.8036 74.4716 15.5171 76.1475 14.423C77.822 13.3274 79.5646 12.4622 81.377 11.8288C83.1878 11.1954 84.9244 10.8771 86.5852 10.8771H105.265L103.124 14.9246H88.4915C87.3853 14.9246 86.2337 15.1383 85.0396 15.5641C83.8455 15.9914 82.6923 16.5672 81.5816 17.2931C80.4708 18.0189 79.4434 18.8736 78.4978 19.8525C77.5523 20.8329 76.787 21.8755 76.2021 22.9832C75.6172 24.0909 75.2777 25.1335 75.1868 26.1139C75.0944 27.0943 75.2201 27.9475 75.5626 28.6733C75.9051 29.3992 76.4476 29.9765 77.1901 30.4023C77.9326 30.8282 78.8585 31.0418 79.9647 31.0418H104.821L102.68 35.0893H73.776L73.7775 35.0923ZM51.4838 35.0575H59.6136L72.4031 10.8771H64.2733L51.4838 35.0575ZM26.7504 35.0575H18.6205L31.41 10.8771H39.5399L33.9407 21.4618H48.4698L54.069 10.8771H62.1988L49.4093 35.0575H41.2795L46.3301 25.5093H31.801L26.7504 35.0575Z" fill="white"/>
<path fill-rule="evenodd" clip-rule="evenodd" d="M20.1692 8.46927L6.11289 35.0439H16.7976L30.8524 8.46927H172.335L175.162 3.12769H8.01768L5.19308 8.46927H20.1692Z" fill="#D32027"/>
<path fill-rule="evenodd" clip-rule="evenodd" d="M177.339 3.12769L174.515 8.46927H182.643L185.469 3.12769H177.339Z" fill="#D32027"/>
<path d="M224.376 49.1464L220.885 45.3572V49.1464H219.305V43.2976H220.972L224.392 47.0631V43.2976H225.964V49.1464H224.376Z" fill="white"/>
<path d="M213.174 49.2338H213.048C210.469 49.2338 209.66 47.6223 209.66 46.3095V46.0972C209.66 44.8551 210.414 43.22 213.079 43.22H213.347C215.894 43.22 216.704 44.3363 216.704 45.2954V45.3111H215.029C214.974 45.1617 214.73 44.5407 213.221 44.5407C211.782 44.5407 211.342 45.3504 211.342 46.1365V46.2387C211.342 47.0012 211.837 47.9132 213.276 47.9132C214.66 47.9132 214.966 47.1742 214.99 47.0012H213.402V45.9557H216.774V49.1474H215.485C215.469 48.943 215.367 48.5263 215.288 48.3377C215.155 48.5027 214.557 49.2338 213.174 49.2338Z" fill="white"/>
<path d="M207.296 43.2976V49.1464H205.677V43.2976H207.296Z" fill="white"/>
<path d="M200.277 49.2519H200.049C197.305 49.2519 196.991 48.0098 196.991 47.3102V47.2237H198.752C198.775 47.4831 198.885 48.0649 200.127 48.0649H200.183C201.401 48.0649 201.558 47.6954 201.558 47.3652C201.558 47.0193 201.33 46.7914 200.363 46.7599L199.585 46.7363C197.667 46.6813 197.054 45.9109 197.054 45.0304V44.9597C197.054 44.0557 197.541 43.2302 199.962 43.2302H200.23C202.816 43.2302 203.17 44.1736 203.17 44.944V45.0304H201.432C201.393 44.771 201.244 44.3858 200.12 44.3858H200.041C199.003 44.3858 198.76 44.5824 198.76 44.9047C198.76 45.2034 198.972 45.4235 199.892 45.4628L200.701 45.4943C202.785 45.5729 203.288 46.2568 203.288 47.208V47.3023C203.288 48.1592 202.895 49.2519 200.277 49.2519Z" fill="white"/>
<path d="M189.353 43.2976H194.707V44.5711H190.949V45.5223H194.589V46.843H190.949V47.8571H194.754V49.1464H189.353V43.2976Z" fill="white"/>
<path d="M180.258 49.1464V43.2976H183.253C186.304 43.2976 187.003 44.8305 187.003 46.0176V46.2534C187.003 47.4798 186.469 49.1464 183.261 49.1464H180.258ZM181.878 44.5947V47.8414H183.183C185.148 47.8414 185.321 46.8823 185.321 46.222V46.1748C185.321 45.5223 185.132 44.5947 183.183 44.5947H181.878Z" fill="white"/>
<path d="M172.555 46.2785C172.555 46.0427 172.591 45.854 172.665 45.7125C172.743 45.5658 172.848 45.4609 172.979 45.398C173.115 45.3352 173.265 45.3037 173.427 45.3037C173.59 45.3037 173.737 45.3352 173.868 45.398C173.999 45.4609 174.103 45.5658 174.182 45.7125C174.261 45.854 174.3 46.0427 174.3 46.2785C174.3 46.5091 174.261 46.6978 174.182 46.8445C174.103 46.986 173.999 47.0908 173.868 47.159C173.737 47.2218 173.59 47.2533 173.427 47.2533C173.265 47.2533 173.115 47.2218 172.979 47.159C172.848 47.0908 172.743 46.986 172.665 46.8445C172.591 46.6978 172.555 46.5091 172.555 46.2785Z" fill="white"/>
<path d="M160.256 49.1473V43.2985H164.525C166.2 43.2985 166.616 44.0296 166.616 44.6821V44.7686C166.616 45.4997 165.98 45.8691 165.539 45.9242C166.2 46.0185 166.907 46.4352 166.907 47.3706V47.4571C166.907 48.2511 166.428 49.1473 164.549 49.1473H160.256ZM164.289 44.517H161.876V45.5626H164.289C164.777 45.5626 164.926 45.3267 164.926 45.0516V45.0359C164.926 44.7528 164.769 44.517 164.289 44.517ZM164.415 46.7103H161.876V47.8659H164.415C164.989 47.8659 165.146 47.575 165.146 47.2763V47.2449C165.146 46.954 164.989 46.7103 164.415 46.7103Z" fill="white"/>
<path d="M152.382 43.2985H157.736V44.572H153.978V45.5232H157.618V46.8439H153.978V47.858H157.783V49.1473H152.382V43.2985Z" fill="white"/>
<path d="M143.979 49.1473H142.101L140.088 43.2985H141.825L143.115 47.5043L144.341 43.2985H146.228L147.462 47.52L148.744 43.2985H150.339L148.398 49.1473H146.464L145.222 45.0516L143.979 49.1473Z" fill="white"/>
<path d="M132.965 46.2785C132.965 46.0427 133.002 45.854 133.075 45.7125C133.154 45.5658 133.259 45.4609 133.39 45.398C133.526 45.3352 133.676 45.3037 133.838 45.3037C134 45.3037 134.147 45.3352 134.278 45.398C134.409 45.4609 134.514 45.5658 134.593 45.7125C134.671 45.854 134.711 46.0427 134.711 46.2785C134.711 46.5091 134.671 46.6978 134.593 46.8445C134.514 46.986 134.409 47.0908 134.278 47.159C134.147 47.2218 134 47.2533 133.838 47.2533C133.676 47.2533 133.526 47.2218 133.39 47.159C133.259 47.0908 133.154 46.986 133.075 46.8445C133.002 46.6978 132.965 46.5091 132.965 46.2785Z" fill="white"/>
<path d="M123.499 49.2346H123.373C120.795 49.2346 119.985 47.6231 119.985 46.3103V46.098C119.985 44.8559 120.74 43.2208 123.405 43.2208H123.672C126.219 43.2208 127.029 44.3371 127.029 45.2962V45.3119H125.354C125.299 45.1625 125.056 44.5415 123.546 44.5415C122.108 44.5415 121.667 45.3512 121.667 46.1373V46.2395C121.667 47.002 122.163 47.9139 123.601 47.9139C124.985 47.9139 125.292 47.175 125.315 47.002H123.727V45.9565H127.1V49.1482H125.81C125.795 48.9438 125.692 48.5271 125.614 48.3385C125.48 48.5035 124.883 49.2346 123.499 49.2346Z" fill="white"/>
<path d="M116.029 49.1472L112.538 45.3581V49.1472H110.958V43.2984H112.625L116.045 47.064V43.2984H117.617V49.1472H116.029Z" fill="white"/>
<path d="M108.336 43.2984V49.1472H106.717V43.2984H108.336Z" fill="white"/>
<path d="M100.577 49.1472V44.6348H98.3127V43.2984H104.453V44.6348H102.188V49.1472H100.577Z" fill="white"/>
<path d="M90.8388 43.2984H96.1925V44.5719H92.4347V45.5232H96.0745V46.8438H92.4347V47.8579H96.2396V49.1472H90.8388V43.2984Z" fill="white"/>
<path d="M84.0246 49.1472H82.4051V43.2984H84.0246V45.704L86.7604 43.2984H88.8201L85.7384 45.9791L88.9537 49.1472H86.839L84.0246 46.3958V49.1472Z" fill="white"/>
<path d="M75.1294 44.5877V45.8297H77.3856C78.046 45.8297 78.2268 45.5467 78.2268 45.2087V45.193C78.2268 44.8628 78.046 44.5877 77.3856 44.5877H75.1294ZM78.6906 46.3329C79.4846 46.5137 79.9642 46.9932 79.9642 47.8501V48.4554C79.9642 48.8956 80.0114 49.0135 80.0585 49.1079V49.1472H78.384C78.3604 49.1079 78.329 48.9978 78.329 48.7384V48.2589C78.329 47.5042 78.0538 47.1583 77.2362 47.1583H75.1294V49.1472H73.5099V43.2984H77.4485C79.6733 43.2984 79.9249 44.2261 79.9249 44.8628V44.9414C79.9249 45.6725 79.4218 46.1678 78.6906 46.3329Z" fill="white"/>
<path d="M68.7639 46.8596L67.7026 44.4776L66.6728 46.8596H68.7639ZM69.7859 49.1472L69.3064 48.0623H66.146L65.6744 49.1472H64.047L66.6413 43.2984H68.8111L71.5233 49.1472H69.7859Z" fill="white"/>
<path d="M54.1012 49.1472V43.2984H56.2552L58.1184 47.2605L60.0366 43.2984H62.057V49.1472H60.4769V45.3188L58.7002 49.1472H57.4345L55.6578 45.3188V49.1472H54.1012Z" fill="white"/>
<path d="M43.166 43.2984H44.7855V47.7715H48.3624V49.1472H43.166V43.2984Z" fill="white"/>
<path d="M38.421 46.8596L37.3597 44.4776L36.3299 46.8596H38.421ZM39.443 49.1472L38.9635 48.0623H35.8031L35.3315 49.1472H33.7041L36.2984 43.2984H38.4682L41.1804 49.1472H39.443Z" fill="white"/>
<path d="M28.868 49.1472V44.6348H26.6039V43.2984H32.7437V44.6348H30.4796V49.1472H28.868Z" fill="white"/>
<path d="M24.3424 43.2984V49.1472H22.723V43.2984H24.3424Z" fill="white"/>
<path d="M16.5914 49.2346H16.4656C13.887 49.2346 13.0773 47.6231 13.0773 46.3103V46.098C13.0773 44.8559 13.832 43.2208 16.4971 43.2208H16.7644C19.3115 43.2208 20.1212 44.3371 20.1212 45.2962V45.3119H18.4467C18.3917 45.1625 18.148 44.5415 16.6386 44.5415C15.1999 44.5415 14.7597 45.3512 14.7597 46.1373V46.2395C14.7597 47.002 15.255 47.9139 16.6936 47.9139C18.0772 47.9139 18.3838 47.175 18.4074 47.002H16.8194V45.9565H20.192V49.1482H18.9027C18.887 48.9438 18.7848 48.5271 18.7062 48.3385C18.5725 48.5035 17.975 49.2346 16.5914 49.2346Z" fill="white"/>
<path d="M10.7138 43.2984V49.1472H9.09428V43.2984H10.7138Z" fill="white"/>
<path d="M-9.53674e-06 49.1472V43.2984H2.99523C6.0455 43.2984 6.74517 44.8314 6.74517 46.0184V46.2543C6.74517 47.4806 6.21059 49.1472 3.00309 49.1472H-9.53674e-06ZM1.61946 44.5955V47.8422H2.92448C4.88986 47.8422 5.06281 46.8831 5.06281 46.2228V46.1756C5.06281 45.5232 4.87413 44.5955 2.92448 44.5955H1.61946Z" fill="white"/>
</svg>
