<svg width="240" height="39" viewBox="0 0 240 39" fill="none" xmlns="http://www.w3.org/2000/svg">
<path fill-rule="evenodd" clip-rule="evenodd" d="M204.47 14.4336L212.454 5.11125C213.741 3.60955 215.271 2.37454 217.021 1.45473C218.716 0.565223 220.555 0 222.48 0H239.361L219.17 38.1715H201.363L203.605 33.9346C202.983 34.5104 202.289 35.0014 201.529 35.3878C200.48 35.9212 199.346 36.2531 198.165 36.2531H191.909C190.492 36.2531 189.165 35.7621 188.203 34.6999C187.319 33.724 186.975 32.495 187.081 31.2479L183.42 38.17H170.475L170.467 38.1851H147.225L146.878 28.1536H142.908L137.583 38.22H122.375L122.393 38.1851H114.396L114.049 28.1536H109.89L104.565 38.22H73.7775C71.7879 38.22 69.8088 37.8487 68.0556 36.8744C66.4024 35.9546 65.0976 34.6317 64.2809 32.9208L61.4957 38.1851H36.0849L41.1355 28.637H33.6831L28.6324 38.1851H13.4335L13.4411 38.17H0.921321L14.9761 11.5969H-7.62939e-06L6.1341 0H199.375C201.391 0 203.297 0.64099 204.609 2.2321C205.916 3.81412 206.188 5.7871 205.796 7.75553L204.467 14.4336H204.47ZM42.6978 11.5969L39.1337 18.3341H46.5862L50.1503 11.5969H42.6978ZM118.629 11.5969L117.588 13.5654L121.54 11.5969H118.629ZM94.7908 27.9172L100.008 18.0523H88.4915C87.6732 18.0523 86.8595 18.2356 86.0912 18.5099C85.1047 18.8615 84.1698 19.3388 83.2939 19.9116C82.368 20.5178 81.5179 21.2285 80.7496 22.0255C80.0511 22.7499 79.4373 23.5575 78.9676 24.447C78.6554 25.038 78.3645 25.7366 78.3008 26.4079C78.2751 26.6898 78.269 27.0807 78.3918 27.3429C78.469 27.5065 78.5918 27.6035 78.7479 27.6929C79.0721 27.8793 79.5995 27.9172 79.9647 27.9172H94.7893H94.7908ZM128.381 26.8686L133.875 16.4824L126.319 20.2344C127.637 21.5952 128.291 23.3545 128.33 25.2714L128.38 26.867L128.381 26.8686Z" fill="#010101"/>
<path fill-rule="evenodd" clip-rule="evenodd" d="M176.174 1.19106H199.377C201.032 1.19106 202.611 1.68051 203.692 2.99128C204.765 4.29145 204.952 5.90984 204.631 7.52368L202.414 18.6675L213.36 5.88711C214.55 4.49905 215.958 3.36103 217.576 2.51092C219.097 1.71233 220.751 1.19257 222.48 1.19257H237.383L218.453 36.9804H203.342L209.533 25.2774L203.397 32.442C202.715 33.2178 201.909 33.8588 200.988 34.3271C200.109 34.7741 199.157 35.0635 198.165 35.0635H191.909C190.83 35.0635 189.82 34.712 189.085 33.9013C188.289 33.0239 188.109 31.8874 188.359 30.76L189.818 23.5242L182.7 36.9804H169.752L169.744 36.9956H148.373L148.026 26.964H142.186L136.861 37.0304H124.352L124.37 36.9956H115.543L115.196 26.964H109.15L108.015 29.1113H108.033L103.845 37.0304H73.776C71.9909 37.0304 70.2074 36.7092 68.633 35.8348C67.1843 35.0287 66.0463 33.8785 65.3371 32.3738C64.9416 31.5343 64.7112 30.6509 64.6097 29.7477L60.7759 36.9956H38.0609L43.1115 27.4474H32.9633L27.9126 36.9956H15.4035L15.411 36.9804H2.89885L16.9537 10.4059H1.97752L6.85238 1.19106H176.174ZM41.9796 10.4059L37.1547 19.5267H47.303L52.1278 10.4059H41.9796ZM74.8428 10.4059L72.6107 14.6261C73.4017 13.9745 74.2291 13.3653 75.0898 12.8031C76.5355 11.8576 78.0645 11.0499 79.6631 10.4059H74.8428ZM117.91 10.4059L114.801 16.2839L126.604 10.4059H117.91ZM95.5076 29.1082L101.986 16.8612H88.4915C87.5353 16.8612 86.5898 17.0673 85.6912 17.3886C84.6153 17.7735 83.597 18.2902 82.6423 18.9145C81.6407 19.5691 80.7224 20.3374 79.8919 21.1981C79.1146 22.0043 78.4372 22.8999 77.9144 23.8894C77.525 24.6243 77.1931 25.4608 77.1143 26.2958C77.0658 26.811 77.0901 27.3747 77.3143 27.8505C77.4977 28.2399 77.7826 28.5127 78.1554 28.7264C78.6842 29.0294 79.3676 29.1098 79.9662 29.1098H95.5091L95.5076 29.1082ZM127.333 31.3994L136.657 13.7714L124.102 20.0071C124.416 20.1889 124.716 20.398 125.002 20.639C126.43 21.8376 127.099 23.4848 127.139 25.3123L127.333 31.4009V31.3994ZM160.196 31.3979L163.831 24.5258C163.098 25.0062 162.33 25.429 161.53 25.7881C161.042 26.0078 160.545 26.2018 160.035 26.367L160.196 31.3979ZM146.397 19.0085H154.736C154.948 19.0085 155.162 18.9554 155.361 18.8827C155.67 18.7706 155.962 18.6205 156.236 18.4417C156.532 18.2478 156.802 18.0189 157.047 17.7659C157.261 17.5462 157.449 17.3007 157.593 17.0294C157.618 16.9809 157.647 16.9234 157.673 16.8612H147.532L146.397 19.0085Z" fill="white"/>
<path fill-rule="evenodd" clip-rule="evenodd" d="M181.537 35.0438H170.807L187.687 3.12918H199.377C200.656 3.12918 201.595 3.49438 202.198 4.22477C202.801 4.95517 202.979 5.92954 202.73 7.14636L199.071 25.5472L214.83 7.14636C215.87 5.92954 217.085 4.95517 218.476 4.22477C219.867 3.49438 221.201 3.12918 222.48 3.12918H234.168L217.287 35.0438H206.557L219.381 10.7983L201.944 31.163C201.409 31.7722 200.798 32.2511 200.11 32.6011C199.422 32.9511 198.775 33.1269 198.166 33.1269H191.911C191.302 33.1269 190.839 32.9527 190.521 32.6011C190.204 32.2511 190.115 31.7722 190.254 31.163L194.36 10.7983L181.535 35.0438H181.537ZM160.451 35.0575H168.58L181.37 10.8771H173.24L160.451 35.0575ZM135.699 35.0923H127.569L140.377 10.8771H164.107C165.075 10.8771 165.895 11.062 166.565 11.4302C167.235 11.7985 167.718 12.3 168.018 12.935C168.317 13.5684 168.423 14.3185 168.333 15.1837C168.246 16.049 167.944 16.9658 167.432 17.9341C166.98 18.7872 166.403 19.6055 165.7 20.3905C164.997 21.1739 164.224 21.8725 163.383 22.4832C162.54 23.0938 161.658 23.6075 160.736 24.0227C159.813 24.4379 158.905 24.7259 158.012 24.888C158.009 24.9804 158.019 25.0608 158.04 25.1305C158.061 25.2002 158.07 25.2805 158.067 25.3729L158.375 35.059H150.245L149.943 26.3412C149.933 25.926 149.792 25.6032 149.522 25.3729C149.252 25.1426 148.886 25.0274 148.425 25.0274H141.022L135.698 35.0938L135.699 35.0923ZM143.182 20.9436H154.736C155.152 20.9436 155.58 20.8632 156.023 20.7011C156.465 20.539 156.89 20.3268 157.296 20.0616C157.702 19.7964 158.082 19.4797 158.438 19.11C158.794 18.7403 159.082 18.3493 159.302 17.9341C159.522 17.5189 159.649 17.1264 159.682 16.7582C159.716 16.39 159.67 16.0717 159.546 15.8065C159.422 15.5414 159.223 15.3277 158.95 15.1671C158.678 15.0049 158.335 14.9246 157.92 14.9246H146.366L143.182 20.9436ZM107.986 25.0259H115.562C116.022 25.0259 116.394 25.1411 116.675 25.3714C116.957 25.6017 117.103 25.9245 117.115 26.3397L117.416 35.0575H125.511L125.204 25.3714C125.175 23.9879 124.693 22.9044 123.758 22.1195C122.823 21.336 121.561 20.9436 119.97 20.9436H117.859L138.127 10.8771H129.997L110.272 20.7011L115.468 10.8771H107.338L97.5684 29.3492H105.698L107.985 25.0259H107.986ZM73.7775 35.0923C72.1167 35.0923 70.7165 34.7756 69.5755 34.1407C68.4344 33.5073 67.6071 32.642 67.0903 31.5464C66.5751 30.4508 66.3887 29.1658 66.5357 27.6899C66.6827 26.2139 67.1949 24.6455 68.0723 22.9847C68.9497 21.3239 70.0968 19.7555 71.5121 18.2796C72.9274 16.8036 74.4716 15.5171 76.1475 14.423C77.822 13.3274 79.5646 12.4622 81.377 11.8288C83.1878 11.1954 84.9244 10.8771 86.5852 10.8771H105.265L103.124 14.9246H88.4915C87.3853 14.9246 86.2337 15.1383 85.0396 15.5641C83.8455 15.9914 82.6923 16.5672 81.5816 17.2931C80.4708 18.0189 79.4434 18.8736 78.4978 19.8525C77.5523 20.8329 76.787 21.8755 76.2021 22.9832C75.6172 24.0909 75.2777 25.1335 75.1868 26.1139C75.0944 27.0943 75.2201 27.9475 75.5626 28.6733C75.9051 29.3992 76.4476 29.9765 77.1901 30.4023C77.9326 30.8282 78.8585 31.0418 79.9647 31.0418H104.821L102.68 35.0893H73.776L73.7775 35.0923ZM51.4838 35.0575H59.6136L72.4031 10.8771H64.2733L51.4838 35.0575ZM26.7504 35.0575H18.6205L31.41 10.8771H39.5399L33.9407 21.4618H48.4698L54.069 10.8771H62.1988L49.4093 35.0575H41.2795L46.3301 25.5093H31.801L26.7504 35.0575Z" fill="#010101"/>
<path fill-rule="evenodd" clip-rule="evenodd" d="M20.1692 8.46926L6.11289 35.0438H16.7976L30.8524 8.46926H172.335L175.162 3.12767H8.01768L5.19308 8.46926H20.1692Z" fill="#D32027"/>
<path fill-rule="evenodd" clip-rule="evenodd" d="M177.339 3.12767L174.515 8.46926H182.643L185.469 3.12767H177.339Z" fill="#D32027"/>
</svg>
