<svg xmlns="http://www.w3.org/2000/svg" width="822" height="481" fill="none"><path fill="#fff" fill-rule="evenodd" d="m267.639.136.071-.134h467.885c19.872 0 34.693 5.613 48.197 13.024 13.411 7.361 23.373 17.417 29.723 30.165l.603 1.243.002.005.088.192c1.211 2.246 2.185 4.772 2.969 7.418 3.855 11.474 4.985 24.388 3.513 38.612l.001.001c-1.786 17.559-7.892 35.95-18.059 55.139l-.001.002c-8.975 16.926-20.425 33.116-34.32 48.603l-.004.003c-13.882 15.441-29.147 29.218-45.764 41.264l-.004.003c-16.622 12.027-34.037 22.157-52.275 30.348-16.675 7.49-33.153 12.903-49.428 16.24l.542 4.807.023.2.006.201 6.136 192.883H459.724l-6.022-173.784-.001-.023v-.023c-.176-6.884-2.449-11.7-6.424-15.088-4.086-3.484-9.933-5.501-18.054-5.501H286.814L185.242 474.978l-3.203 6.024H13.508L220.932 88.515 0 88.842 47.06 0 267.64.136Zm64.766 198.276 219.307-1.626h.037c7.407 0 15.15-1.429 23.258-4.394a116.642 116.642 0 0 0 23.699-11.887c7.551-4.923 14.647-10.817 21.314-17.727 6.623-6.865 11.923-14.068 15.948-21.66 4.038-7.617 6.249-14.58 6.822-20.899.588-6.484-.247-11.719-2.194-15.868-1.951-4.157-5.075-7.565-9.57-10.207l-.008-.006-.009-.005c-4.317-2.562-10.015-4-17.452-4h-.036l-222.741-1.61-58.375 109.889Z" clip-rule="evenodd"/></svg>